<?xml version="1.0" standalone="no"?>
<!DOCTYPE svg PUBLIC "-//W3C//DTD SVG 1.1//EN" "http://www.w3.org/Graphics/SVG/1.1/DTD/svg11.dtd" >
<svg xmlns="http://www.w3.org/2000/svg">
<metadata></metadata>
<defs>
<font id="elstonpro-lightuploaded_file" horiz-adv-x="1019" >
<font-face units-per-em="2048" ascent="1786" descent="-262" />
<missing-glyph horiz-adv-x="368" />
<glyph unicode="&#xfb01;" horiz-adv-x="1241" d="M72 70v1228q0 70 69 70h611q68 0 67 -70v-88q0 -68 -67 -67h-371q-23 0 -32 -9.5t-9 -31.5v-256q0 -23 9 -32t32 -9h274q68 0 68 -68v-90q0 -68 -68 -67h-274q-23 0 -32 -9t-9 -32v-469q0 -70 -70 -70h-129q-70 0 -69 70zM901 70v1228q0 70 69 70h129q70 0 70 -70v-1228 q0 -70 -70 -70h-129q-70 0 -69 70z" />
<glyph unicode="&#xfb02;" horiz-adv-x="1699" d="M72 70v1228q0 70 69 70h611q68 0 67 -70v-88q0 -68 -67 -67h-371q-23 0 -32 -9.5t-9 -31.5v-256q0 -23 9 -32t32 -9h274q68 0 68 -68v-90q0 -68 -68 -67h-274q-23 0 -32 -9t-9 -32v-469q0 -70 -70 -70h-129q-70 0 -69 70zM901 70v1228q-1 70 69 70h129q70 0 70 -70v-1032 q0 -23 9 -32t32 -9h412q68 0 67 -67v-88q0 -70 -67 -70h-652q-70 0 -69 70z" />
<glyph horiz-adv-x="0" />
<glyph horiz-adv-x="0" />
<glyph horiz-adv-x="682" />
<glyph unicode="&#xd;" horiz-adv-x="681" />
<glyph unicode=" "  horiz-adv-x="368" />
<glyph unicode="&#x09;" horiz-adv-x="368" />
<glyph unicode="&#xa0;" horiz-adv-x="368" />
<glyph unicode="!" horiz-adv-x="407" d="M61 68v137q0 68 64 67h158q63 0 63 -67v-137q0 -68 -63 -68h-158q-63 0 -64 68zM61 1300q0 68 64 68h158q63 0 63 -68l-16 -839q-1 -68 -64 -68h-125q-63 0 -63 68z" />
<glyph unicode="&#x22;" horiz-adv-x="653" d="M61 877v432q0 59 56 59h155q55 0 43 -57l-106 -447q-8 -33 -53 -33h-52q-43 0 -43 46zM395 877v432q0 59 56 59h155q55 0 43 -57l-106 -447q-8 -33 -53 -33h-52q-43 0 -43 46z" />
<glyph unicode="#" horiz-adv-x="864" d="M6 717l4 33q8 63 72 63h102l25 174h-103q-61 0 -53 66l4 32q8 63 72 64h104l23 158q8 70 68 69h57q35 0 44 -16.5t5 -52.5l-22 -158h129l22 158q8 70 68 69h57q35 0 44 -16.5t5 -52.5l-22 -158h102q35 0 46 -15.5t7 -48.5l-4 -32q-8 -66 -71 -66h-103l-24 -174h102 q35 0 46 -15.5t7 -47.5l-4 -33q-8 -66 -74 -66h-102l-23 -157q-4 -35 -19 -51.5t-48 -16.5h-57q-33 0 -43.5 16.5t-6.5 51.5l23 157h-129l-23 -157q-4 -35 -19 -51.5t-48 -16.5h-58q-33 0 -43 16.5t-6 51.5l23 157h-105q-33 0 -44 15.5t-7 50.5zM358 813h131l23 174h-129z " />
<glyph unicode="$" horiz-adv-x="794" d="M31 68v90q0 68 67 67h365q57 0 26 51l-385 666q-74 129 -73 199q0 104 61.5 165.5t190.5 61.5h32v82q0 33 14.5 47t47.5 14h63q35 0 48.5 -14t13.5 -47v-82h125q68 0 67 -70v-79q1 -68 -67 -68h-291q-27 0 -34 -18.5t7 -42.5l377 -650q4 -6 16.5 -27.5t16.5 -28.5 t14 -26.5t13.5 -29t10.5 -26.5t10 -29.5t5 -29t2 -30.5q0 -100 -58.5 -156.5t-178.5 -56.5h-35v-84q0 -35 -13.5 -48t-48.5 -13h-63q-33 0 -47.5 13t-14.5 48v84h-217q-68 0 -67 68z" />
<glyph unicode="%" horiz-adv-x="1245" d="M41 993q0 152 10 211q33 180 225.5 180t225.5 -180q10 -59 10 -211q0 -154 -10 -213q-33 -180 -225.5 -180t-225.5 180q-10 59 -10 213zM197 813q0 -45 17 -62.5t62.5 -17.5t62.5 17.5t17 62.5v358q0 45 -17 62.5t-62.5 17.5t-62.5 -17t-17 -63v-358zM264 51l572 1276 q18 41 57 41h57q56 0 31 -51l-571 -1276q-18 -41 -58 -41h-57q-55 0 -31 51zM733 375q0 154 10 213q33 180 225.5 180t225.5 -180q10 -59 10 -213q0 -152 -10 -211q-33 -180 -225.5 -180t-225.5 180q-10 59 -10 211zM889 197q0 -45 17.5 -62.5t62.5 -17.5t62.5 17.5 t17.5 62.5v358q0 45 -17.5 62.5t-62.5 17.5t-62.5 -17.5t-17.5 -62.5v-358z" />
<glyph unicode="&#x26;" horiz-adv-x="931" d="M41 244v360q0 180 135 227q-59 70 -59 222q0 180 73.5 247.5t194.5 67.5h313q68 0 68 -70v-88q0 -68 -68 -67h-231q-43 0 -62.5 -24.5t-19.5 -94.5t19.5 -94.5t62.5 -24.5h147q68 0 68 -67v-78q0 -68 -68 -68h-247q-57 0 -58 -61v-344q0 -61 58 -62h161q57 0 58 62v168 q0 57 23.5 80.5t78.5 23.5h186q68 0 68 -70v-73q0 -68 -68 -68q-25 0 -32.5 -9t-7.5 -32v-63q0 -244 -244 -244h-305q-244 0 -244 244z" />
<glyph unicode="'" horiz-adv-x="319" d="M61 877v432q0 59 56 59h155q55 0 43 -57l-106 -447q-8 -33 -53 -33h-52q-43 0 -43 46z" />
<glyph unicode="(" horiz-adv-x="440" d="M51 686q0 289 65.5 531.5t143.5 353.5q18 27 31.5 34t46.5 7h80q43 0 43 -29q0 -8 -15.5 -49t-38 -113.5t-46 -170t-39 -248t-15.5 -316.5t15.5 -316.5t39 -247.5t46 -170t38 -114t15.5 -49q0 -29 -43 -29h-80q-33 0 -46 7.5t-32 33.5q-78 111 -143.5 353.5t-65.5 531.5z " />
<glyph unicode=")" horiz-adv-x="440" d="M-20 -211q0 8 15 49t38.5 114t46 170t38 247.5t15.5 316.5t-15.5 316.5t-39 248t-46 170t-37.5 113.5t-15 49q0 29 43 29h79q33 0 46.5 -7.5t31.5 -33.5q78 -111 143.5 -353.5t65.5 -531.5t-65.5 -531.5t-143.5 -353.5q-18 -27 -31.5 -34t-46.5 -7h-79q-43 0 -43 29z" />
<glyph unicode="*" horiz-adv-x="669" d="M53 934q-16 27 21 45l164 72l-164 71q-37 18 -21 45l47 84q16 27 50 4l143 -106l-19 178q-4 41 29 41h96q33 0 29 -41l-20 -178l145 106q33 23 49 -4l47 -84q17 -27 -20 -45l-166 -71l166 -72q37 -18 20 -45l-47 -84q-16 -27 -49 -4l-145 106l20 -178q4 -41 -29 -41h-96 q-33 0 -29 41l19 178l-143 -106q-33 -23 -50 4z" />
<glyph unicode="+" horiz-adv-x="743" d="M41 504v88q0 29 12.5 41t40.5 12h178v180q0 29 12.5 41.5t41.5 12.5h92q29 0 41 -12.5t12 -41.5v-180h178q29 0 41 -12t12 -41v-88q0 -29 -12 -41t-41 -12h-178v-181q0 -29 -12.5 -41t-40.5 -12h-92q-29 0 -41.5 12.5t-12.5 40.5v181h-178q-29 0 -41 12t-12 41z" />
<glyph unicode="," horiz-adv-x="387" d="M51 88v117q0 68 64 67h157q63 0 64 -67v-101q0 -51 -27 -88l-92 -131q-29 -39 -74 -39h-34q-31 0 -31 25q0 12 14 33l49 69q14 23 15 31q0 21 -39 27q-35 4 -50.5 15t-15.5 42z" />
<glyph unicode="-" horiz-adv-x="614" d="M41 635v123q0 57 57 57h418q57 0 57 -57v-123q0 -57 -57 -57h-418q-57 0 -57 57z" />
<glyph unicode="." horiz-adv-x="387" d="M51 68v137q0 68 64 67h157q63 0 64 -67v-137q-1 -68 -64 -68h-157q-63 0 -64 68z" />
<glyph unicode="/" horiz-adv-x="663" d="M14 -14l437 1394q23 68 90 68h73q35 0 50.5 -18.5t5.5 -49.5l-437 -1394q-23 -68 -90 -68h-73q-35 0 -50.5 18.5t-5.5 49.5z" />
<glyph unicode="0" horiz-adv-x="937" d="M49 684q0 293 12 381q25 168 114 251t294 83t294 -83t114 -251q12 -88 12 -381q0 -295 -12 -383q-25 -166 -114 -249t-294 -83t-294 83t-114 249q-12 88 -12 383zM309 348q0 -94 32 -128t128 -34t128 34t32 128v672q0 94 -32 128t-128 34t-128 -34t-32 -128v-672z" />
<glyph unicode="1" horiz-adv-x="471" d="M-10 1219v79q0 70 67 70h275q68 0 67 -70v-1230q0 -68 -67 -68h-123q-70 0 -70 68v1042q0 23 -8 32t-33 9h-41q-68 0 -67 68z" />
<glyph unicode="2" horiz-adv-x="788" d="M31 70v159q0 92 19.5 145.5t70.5 112.5l317 367q33 37 33 90v166q0 23 -8 32t-33 9h-289q-68 0 -67 68v79q0 70 67 70h424q166 0 166 -166v-284q1 -97 -67 -175l-338 -391q-35 -39 -35 -73v-62h409q68 0 68 -67v-80q0 -70 -68 -70h-602q-68 0 -67 70z" />
<glyph unicode="3" horiz-adv-x="821" d="M20 70v80q0 68 68 67h371q25 0 33 9.5t8 31.5v320q0 23 -8.5 31.5t-32.5 8.5h-262q-68 0 -68 68v92q0 27 9 38t42 28l279 145q41 20 41 53v68q0 23 -8.5 32t-32.5 9h-342q-68 0 -68 68v79q0 70 68 70h477q166 0 166 -166v-217q0 -23 -4 -41t-15.5 -33.5t-18.5 -26 t-27.5 -22.5t-31 -17t-38 -18.5t-37.5 -19.5q76 -4 124 -48t48 -130v-463q0 -166 -166 -166h-506q-68 0 -68 70z" />
<glyph unicode="4" horiz-adv-x="937" d="M61 774v526q0 68 70 68h119q68 0 67 -68l2 -436q0 -23 8.5 -32t32.5 -9h127q25 0 33 9.5t8 31.5v312q0 68 68 67h123q70 0 69 -67v-312q0 -23 8.5 -32t32.5 -9h41q68 0 68 -67v-80q0 -70 -68 -70h-41q-25 0 -33 -9t-8 -32v-497q0 -68 -69 -68h-123q-68 0 -68 68v499 q0 23 -8 32t-33 9h-260q-166 0 -166 166z" />
<glyph unicode="5" horiz-adv-x="856" d="M31 70v80q0 68 67 67h410q25 0 33 9.5t8 31.5v334q0 23 -8.5 32t-32.5 9h-373q-68 0 -67 69v596q0 70 67 70h551q68 0 68 -70v-79q0 -68 -68 -68h-317q-25 0 -33 -9t-8 -32v-221q0 -23 8 -32t33 -9h192q68 0 107 -12.5t74.5 -54.5t51 -129t15.5 -228t-15.5 -228t-51 -129 t-74.5 -54.5t-107 -12.5h-463q-68 0 -67 70z" />
<glyph unicode="6" horiz-adv-x="905" d="M51 684q0 303 12 412q6 61 11.5 88.5t23 70.5t45 62.5t79.5 35t128 15.5h387q68 0 68 -70v-79q0 -68 -68 -68h-385q-25 0 -33 -9t-8 -32v-170q0 -23 8.5 -32t32.5 -9h295q104 0 157.5 -53t53.5 -174v-445q0 -121 -53 -174t-158 -53h-297q-76 0 -128 15.5t-79.5 35 t-45 62.5t-22.5 70.5t-12 88.5q-12 109 -12 412zM311 330q0 -66 25.5 -89.5t118 -23.5t118 23.5t25.5 89.5v239q0 66 -25.5 89.5t-117.5 23.5q-86 0 -115 -19.5t-29 -70.5v-262z" />
<glyph unicode="7" horiz-adv-x="813" d="M0 1219v79q0 70 68 70h667q68 0 68 -70v-149q0 -47 -21 -100l-397 -1002q-10 -27 -25.5 -37t-48.5 -10h-151q-64 0 -37 72l416 1028q18 51 -31 51h-440q-68 0 -68 68z" />
<glyph unicode="8" horiz-adv-x="905" d="M41 397q0 266 109 348q-68 57 -68 271q0 227 71.5 305t299 78t299 -78t71.5 -305q0 -211 -67 -271q109 -82 108 -348q0 -250 -88 -339t-323.5 -89t-323.5 89t-88 339zM293 307q0 -66 30.5 -93.5t129 -27.5t129 27.5t30.5 93.5v205q0 66 -30.5 93.5t-129 27.5t-129 -27.5 t-30.5 -93.5v-205zM334 934q0 -61 23.5 -80.5t95 -19.5t95 19.5t23.5 80.5v147q0 61 -23.5 81t-95 20t-95 -19.5t-23.5 -81.5v-147z" />
<glyph unicode="9" horiz-adv-x="905" d="M47 696v445q0 121 53.5 174t157.5 53h297q76 0 128 -15.5t80 -35t45 -62.5t22.5 -70.5t11.5 -88.5q12 -109 12 -412t-12 -412q-6 -61 -11.5 -88.5t-22.5 -70.5t-45 -62.5t-80 -35t-128 -15.5h-387q-68 0 -68 70v80q0 68 68 67h385q25 0 33 9.5t8 31.5v180q-2 31 -41 31 h-295q-104 0 -157.5 53t-53.5 174zM307 799q0 -66 26 -89.5t118 -23.5q84 0 111.5 19.5t31.5 68.5v264q0 66 -25.5 89.5t-118 23.5t-118 -23.5t-25.5 -89.5v-239z" />
<glyph unicode=":" horiz-adv-x="387" d="M51 68v137q0 68 64 67h157q63 0 64 -67v-137q-1 -68 -64 -68h-157q-63 0 -64 68zM51 650v137q0 68 64 67h157q63 0 64 -67v-137q-1 -68 -64 -68h-157q-63 0 -64 68z" />
<glyph unicode=";" horiz-adv-x="387" d="M51 88v117q0 68 64 67h157q63 0 64 -67v-101q0 -51 -27 -88l-92 -131q-29 -39 -74 -39h-34q-31 0 -31 25q0 12 14 33l49 69q14 23 15 31q0 21 -39 27q-35 4 -50.5 15t-15.5 42zM51 650v137q0 68 64 67h157q63 0 64 -67v-137q-1 -68 -64 -68h-157q-63 0 -64 68z" />
<glyph unicode="&#x3c;" horiz-adv-x="741" d="M31 514v98q0 43 53 68l573 266q27 10 40.5 2t13.5 -30v-115q0 -27 -11.5 -39t-42.5 -25l-405 -176l405 -176q31 -12 42.5 -24.5t11.5 -38.5v-115q0 -23 -13.5 -31t-40.5 2l-573 266q-53 25 -53 68z" />
<glyph unicode="=" horiz-adv-x="743" d="M41 348v88q0 29 12.5 41t40.5 12h555q29 0 41 -12t12 -41v-88q0 -29 -12 -41t-41 -12h-555q-29 0 -41 12t-12 41zM41 660v88q0 29 12.5 41t40.5 12h555q29 0 41 -12t12 -41v-88q0 -29 -12 -41t-41 -12h-555q-29 0 -41 12t-12 41z" />
<glyph unicode="&#x3e;" horiz-adv-x="741" d="M31 209v115q0 27 11 39t42 24l403 176l-403 176q-31 12 -42 24.5t-11 39.5v115q0 23 13 30.5t40 -2.5l573 -266q54 -25 54 -68v-98q0 -43 -54 -68l-573 -266q-27 -10 -40 -2t-13 31z" />
<glyph unicode="?" horiz-adv-x="778" d="M20 1210v88q0 70 68 70h592q68 0 68 -70v-172q0 -57 -39 -127l-217 -376q-29 -51 -29 -93v-69q0 -68 -68 -68h-114q-70 0 -70 68v80q0 76 51 168l217 393q10 16 4 28.5t-26 12.5h-369q-68 0 -68 67zM195 68v137q0 68 63 67h158q63 0 63 -67v-137q0 -68 -63 -68h-158 q-63 0 -63 68z" />
<glyph unicode="@" horiz-adv-x="1286" d="M51 487v414q0 498 596 498q588 0 588 -498v-336q0 -127 -69.5 -200.5t-194.5 -73.5q-66 0 -118 20.5t-71 40.5l-18 19q-49 -70 -156 -70q-127 0 -178 56.5t-51 158.5v76q0 49 6 81t37 69.5t90 54.5l147 43q43 12 43 37q0 27 -34 26h-207q-39 0 -39 39v80q0 39 39 39h219 q49 0 81 -5t64.5 -23.5t49 -57.5t16.5 -98v-342q0 -84 80 -84t80 96v354q0 111 -34 183.5t-96.5 107.5t-126 47t-147.5 12q-66 0 -119 -6t-110.5 -28.5t-95 -59.5t-62 -102.5t-24.5 -153.5v-414q0 -94 22.5 -158.5t54 -100t90 -54t107.5 -23t129 -4.5h172q39 0 39 -38v-70 q0 -39 -39 -39h-197q-287 0 -425 102t-138 385zM571 510q0 -59 63.5 -59t63.5 59v190l-82 -20q-45 -12 -45 -64v-106z" />
<glyph unicode="A" horiz-adv-x="1085" d="M14 70l357 1228q21 70 78 70h229q57 0 78 -70l356 -1228q5 -17 5 -30q0 -40 -48 -40h-164q-33 0 -47 11.5t-24 43.5l-70 264q-10 35 -39 35h-328q-29 0 -39 -35l-69 -264q-10 -33 -24.5 -44t-47.5 -11h-160q-48 0 -48 40q0 13 5 30zM438 621q-2 -9 -2 -16q0 -25 29 -25 h184q37 0 37 27q0 6 -2 14l-123 466z" />
<glyph unicode="B" horiz-adv-x="1044" d="M72 70v1228q0 70 69 70h418q188 0 298 -95t110 -263q0 -203 -146 -287q186 -84 187 -322q0 -190 -103.5 -295.5t-320.5 -105.5h-443q-70 0 -69 70zM340 266q0 -23 9 -32t32 -9h170q188 0 188 184.5t-188 184.5h-170q-23 0 -32 -9.5t-9 -31.5v-287zM340 860q0 -23 9 -32 t32 -9h151q170 0 170 162t-170 162h-151q-23 0 -32 -9.5t-9 -31.5v-242z" />
<glyph unicode="C" horiz-adv-x="829" d="M51 684q0 229 6 340q10 176 83 260t235 84h366q68 0 68 -70v-88q0 -67 -66 -67h-2h-344q-78 0 -78 -82v-754q0 -82 78 -82h344q68 0 68 -67v-88q0 -70 -68 -70h-366q-162 0 -234.5 84t-83.5 260q-6 111 -6 340z" />
<glyph unicode="D" horiz-adv-x="1058" d="M72 70v1228q0 70 69 70h408q221 0 319.5 -87t122.5 -253q17 -109 17 -344v-13q0 -225 -17 -331q-25 -166 -123 -253t-319 -87h-408q-70 0 -69 70zM340 266q0 -23 9 -32t32 -9h168q111 0 150.5 53.5t39.5 167.5v476q0 115 -39.5 168t-150.5 53h-168q-23 0 -32 -9.5 t-9 -31.5v-836z" />
<glyph unicode="E" horiz-adv-x="890" d="M72 70v1228q0 70 69 70h631q68 0 68 -70v-88q0 -67 -66 -67h-2h-391q-23 0 -32 -9.5t-9 -31.5v-221q0 -23 9 -32t32 -9h274q68 0 68 -68v-90q0 -68 -68 -68h-274q-23 0 -32 -9t-9 -32v-307q0 -23 9 -32t32 -9h422q68 0 67 -67v-88q0 -70 -67 -70h-662q-69 0 -69 70z" />
<glyph unicode="F" horiz-adv-x="829" d="M72 70v1228q0 70 69 70h611q68 0 67 -70v-88q0 -67 -65 -67h-2h-371q-23 0 -32 -9.5t-9 -31.5v-256q0 -23 9 -32t32 -9h274q68 0 68 -68v-90q0 -67 -66 -67h-2h-274q-23 0 -32 -9t-9 -32v-469q0 -70 -70 -70h-129q-70 0 -69 70z" />
<glyph unicode="G" horiz-adv-x="1001" d="M51 684q0 223 6 334q10 180 84 265t258 85h371q68 0 68 -70v-88q0 -67 -66 -67h-2h-371q-80 0 -80 -92v-629q0 -117 40 -172t151 -55t150.5 55t39.5 172v135q0 23 -9 32t-32 9h-63q-68 0 -68 70v88q0 67 66 67h2h297h2q66 0 66 -67v-387q0 -211 -106.5 -305.5 t-344.5 -94.5t-341 91.5t-114 297.5q-4 90 -4 326z" />
<glyph unicode="H" horiz-adv-x="1087" d="M72 70v1228q0 70 69 70h129q70 0 70 -70v-438q0 -23 9 -32t32 -9h326q23 0 32 9.5t9 31.5v438q0 70 69 70h129q70 0 70 -70v-1228q0 -70 -70 -70h-129q-70 0 -69 70v483q0 23 -9.5 32t-31.5 9h-326q-23 0 -32 -9t-9 -32v-483q0 -70 -70 -70h-129q-70 0 -69 70z" />
<glyph unicode="I" horiz-adv-x="411" d="M72 70v1228q0 70 69 70h129q70 0 70 -70v-1228q0 -70 -70 -70h-129q-70 0 -69 70z" />
<glyph unicode="J" horiz-adv-x="636" d="M0 70v88q0 67 66 67h2h192q23 0 32 9.5t9 31.5v1032q0 70 70 70h129q70 0 69 -70v-1085q0 -213 -213 -213h-288q-68 0 -68 70z" />
<glyph unicode="K" horiz-adv-x="1073" d="M72 70v1228q0 70 69 70h129q70 0 70 -70v-479l385 504q35 45 94 45h180q33 0 39 -24.5t-12 -45.5l-342 -444l403 -793q6 -12 6 -22q0 -11 -7 -21q-13 -18 -46 -18h-149q-74 0 -94 45l-310 610l-147 -141v-444q0 -70 -70 -70h-129q-70 0 -69 70z" />
<glyph unicode="L" horiz-adv-x="870" d="M72 70v1228q-1 70 69 70h129q70 0 70 -70v-1032q0 -23 9 -32t32 -9h412q68 0 67 -67v-88q0 -70 -67 -70h-652q-70 0 -69 70z" />
<glyph unicode="M" horiz-adv-x="1294" d="M72 70v1228q0 70 69 70h172q47 0 74 -55l260 -537l264 537q27 55 78 55h164q70 0 70 -70v-1228q0 -70 -70 -70h-129q-70 0 -70 70v786l-225 -457q-23 -45 -61 -45h-45q-39 0 -62 45l-225 461v-790q0 -70 -70 -70h-125q-70 0 -69 70z" />
<glyph unicode="N" horiz-adv-x="1101" d="M72 70v1228q0 70 69 70h156q33 0 51.5 -14.5t38.5 -55.5l379 -772v772q0 70 70 70h125q70 0 69 -70v-1228q0 -70 -69 -70h-136q-33 0 -51 14.5t-39 55.5l-399 813v-813q0 -70 -70 -70h-125q-70 0 -69 70z" />
<glyph unicode="O" d="M51 684q0 283 12 371q51 344 446.5 344t446.5 -344q12 -88 13 -371q0 -285 -13 -373q-25 -164 -129 -253t-317 -89t-317.5 89t-129.5 253q-12 88 -12 373zM319 422q0 -117 40 -172t151 -55t150.5 55t39.5 172v524q0 117 -39.5 172.5t-150.5 55.5t-151 -55.5t-40 -172.5 v-524z" />
<glyph unicode="P" horiz-adv-x="989" d="M72 68v1230q0 70 69 70h389q190 0 304 -109.5t114 -310t-114 -310.5t-304 -110h-149q-23 0 -32 -9t-9 -32v-419q0 -68 -68 -68h-131q-70 0 -69 68zM340 795q0 -23 9 -32t32 -9h113q94 0 140 46t46 148.5t-46 148.5t-140 46h-113q-23 0 -32 -9.5t-9 -31.5v-307z" />
<glyph unicode="Q" d="M51 684q0 283 12 371q51 344 446.5 344t446.5 -344q12 -88 13 -371q0 -285 -13 -373q-43 -283 -313 -329v-117q0 -70 -70 -70h-124q-70 0 -70 70v115q-274 47 -316 331q-12 88 -12 373zM319 422q0 -117 40 -172t151 -55t150.5 55t39.5 172v524q0 117 -39.5 172.5 t-150.5 55.5t-151 -55.5t-40 -172.5v-524z" />
<glyph unicode="R" horiz-adv-x="995" d="M72 68v1230q0 70 69 70h389q190 0 304 -106.5t114 -300.5q0 -248 -182 -353l223 -542q5 -12 5 -24q0 -10 -4 -20q-9 -22 -40 -22h-176q-53 0 -69 41l-179 469q-16 43 -55 43h-90q-23 0 -32 -9t-9 -32v-444q0 -68 -68 -68h-131q-70 0 -69 68zM340 819q0 -23 9 -32t32 -9 h113q186 0 186 182.5t-186 182.5h-113q-23 0 -32 -9.5t-9 -31.5v-283z" />
<glyph unicode="S" horiz-adv-x="937" d="M31 1139q0 229 256 229h483q68 0 68 -70v-88q0 -67 -68 -67h-399q-33 0 -39 -24.5t14 -47.5l459 -604q68 -90 90.5 -135t22.5 -105q0 -109 -66 -168t-182 -59h-570q-68 0 -67 68v90q0 67 65 67h2h457q41 0 48 30t-13 54l-475 621q-86 115 -86 209z" />
<glyph unicode="T" horiz-adv-x="886" d="M10 1210v88q0 70 68 70h731q68 0 68 -70v-88q0 -67 -66 -67h-2h-191q-23 0 -31.5 -9.5t-8.5 -31.5v-1032q0 -70 -70 -70h-129q-70 0 -70 70v1032q0 23 -9 32t-32 9h-190q-68 0 -68 67z" />
<glyph unicode="U" horiz-adv-x="1052" d="M68 369v929q0 70 69 70h129q70 0 70 -70v-876q0 -117 40 -172t150.5 -55t150.5 55t40 172v876q0 70 69 70h129q70 0 70 -70v-929q0 -211 -109.5 -305.5t-349 -94.5t-349 94.5t-109.5 305.5z" />
<glyph unicode="V" horiz-adv-x="1026" d="M14 1298q-4 16 -4 28q0 42 53 42h144q72 0 88 -59l240 -852l241 852q16 59 88 59h140q54 0 54 -41q0 -12 -5 -29l-371 -1237q-10 -35 -23.5 -48t-46.5 -13h-161q-33 0 -46.5 13.5t-23.5 47.5z" />
<glyph unicode="W" horiz-adv-x="1665" d="M14 1298q-4 16 -4 28q0 42 53 42h148q72 0 88 -59l240 -848l178 602l-70 235q-4 16 -4 28q0 42 53 42h131q72 0 88 -59l252 -842l242 842q16 59 88 59h145q54 0 54 -42q0 -12 -4 -28l-371 -1237q-10 -35 -23.5 -48t-46.5 -13h-164q-33 0 -46 13.5t-23 47.5l-168 555 l-162 -555q-10 -35 -23.5 -48t-46.5 -13h-167q-33 0 -46.5 13.5t-23.5 47.5z" />
<glyph unicode="X" horiz-adv-x="950" d="M7 22q-5 10 -5 21q0 13 8 27l336 643l-305 585q-14 29 -3 49.5t44 20.5h172q33 0 48 -10t32 -39l153 -328l160 328q16 29 31.5 39t48.5 10h166q33 0 44 -20.5t-3 -49.5l-305 -583l336 -645q8 -14 8 -27q0 -11 -5 -21q-11 -22 -44 -22h-172q-33 0 -48.5 10t-31.5 39 l-187 387l-188 -387q-16 -29 -31.5 -39t-48.5 -10h-166q-33 0 -44 22z" />
<glyph unicode="Y" horiz-adv-x="960" d="M12 1298q-7 15 -7 28t7 22q15 20 49 20h146q35 0 51 -9t29 -36l209 -500l209 500q12 27 28.5 36t50.5 9h144q35 0 49 -20q7 -9 7 -21.5t-7 -28.5l-348 -772v-456q0 -70 -70 -70h-129q-70 0 -70 70v452z" />
<glyph unicode="Z" horiz-adv-x="907" d="M-10 215q0 51 18.5 101.5t35.5 77t54 73.5l467 604q20 23 14.5 47.5t-38.5 24.5h-404q-68 0 -67 67v88q0 70 67 70h484q256 0 257 -229q0 -94 -87 -209l-480 -621q-20 -25 -13 -54.5t48 -29.5h461q68 0 67 -67v-90q0 -68 -67 -68h-569q-113 0 -180.5 55.5t-67.5 159.5z " />
<glyph unicode="[" horiz-adv-x="514" d="M72 -170v1712q0 70 69 70h326q68 0 68 -70v-76q0 -68 -68 -67h-98q-25 0 -33 -8.5t-8 -32.5v-1344q0 -25 8 -33t33 -8h98q68 0 68 -67v-76q0 -70 -68 -70h-326q-69 0 -69 70z" />
<glyph unicode="\" horiz-adv-x="663" d="M14 1380q-10 31 5.5 49.5t50.5 18.5h73q68 0 90 -68l437 -1394q10 -31 -5.5 -49.5t-50.5 -18.5h-73q-67 0 -90 68z" />
<glyph unicode="]" horiz-adv-x="514" d="M-20 -94q0 68 67 67h98q25 0 33 8.5t8 32.5v1344q0 25 -8 33t-33 8h-98q-68 0 -67 67v76q0 70 67 70h326q69 0 69 -70v-1712q0 -70 -69 -70h-326q-68 0 -67 70v76z" />
<glyph unicode="^" horiz-adv-x="991" d="M71.5 833.5q-12.5 18.5 0.5 40.5l209 371q18 33 35.5 46.5t52.5 13.5h278q35 0 52.5 -13.5t35.5 -46.5l209 -371q12 -23 0 -41t-31 -18h-112q-49 0 -88 47l-256 330l96 -14l-250 -316q-39 -47 -88 -47h-113q-18 0 -30.5 18.5z" />
<glyph unicode="_" horiz-adv-x="737" d="M-61 -164q0 66 69 66h721q70 0 70 -66v-57q0 -64 -70 -64h-721q-70 0 -69 64v57z" />
<glyph unicode="`" horiz-adv-x="391" d="M37 1225.5q4 13.5 22 13.5h187q41 0 53 -39l63 -207q6 -16 -3 -27.5t-21 -11.5h-70q-37 0 -63 31l-160 211q-12 16 -8 29.5z" />
<glyph unicode="a" horiz-adv-x="1085" d="M14 70l357 1228q21 70 78 70h229q57 0 78 -70l356 -1228q5 -17 5 -30q0 -40 -48 -40h-164q-33 0 -47 11.5t-24 43.5l-70 264q-10 35 -39 35h-328q-29 0 -39 -35l-69 -264q-10 -33 -24.5 -44t-47.5 -11h-160q-48 0 -48 40q0 13 5 30zM438 621q-2 -9 -2 -16q0 -25 29 -25 h184q37 0 37 27q0 6 -2 14l-123 466z" />
<glyph unicode="b" horiz-adv-x="1044" d="M72 70v1228q0 70 69 70h418q188 0 298 -95t110 -263q0 -203 -146 -287q186 -84 187 -322q0 -190 -103.5 -295.5t-320.5 -105.5h-443q-70 0 -69 70zM340 266q0 -23 9 -32t32 -9h170q188 0 188 184.5t-188 184.5h-170q-23 0 -32 -9.5t-9 -31.5v-287zM340 860q0 -23 9 -32 t32 -9h151q170 0 170 162t-170 162h-151q-23 0 -32 -9.5t-9 -31.5v-242z" />
<glyph unicode="c" horiz-adv-x="829" d="M51 684q0 229 6 340q10 176 83 260t235 84h366q68 0 68 -70v-88q0 -67 -66 -67h-2h-344q-78 0 -78 -82v-754q0 -82 78 -82h344q68 0 68 -67v-88q0 -70 -68 -70h-366q-162 0 -234.5 84t-83.5 260q-6 111 -6 340z" />
<glyph unicode="d" horiz-adv-x="1058" d="M72 70v1228q0 70 69 70h408q221 0 319.5 -87t122.5 -253q17 -109 17 -344v-13q0 -225 -17 -331q-25 -166 -123 -253t-319 -87h-408q-70 0 -69 70zM340 266q0 -23 9 -32t32 -9h168q111 0 150.5 53.5t39.5 167.5v476q0 115 -39.5 168t-150.5 53h-168q-23 0 -32 -9.5 t-9 -31.5v-836z" />
<glyph unicode="e" horiz-adv-x="890" d="M72 70v1228q0 70 69 70h631q68 0 68 -70v-88q0 -67 -66 -67h-2h-391q-23 0 -32 -9.5t-9 -31.5v-221q0 -23 9 -32t32 -9h274q68 0 68 -68v-90q0 -68 -68 -68h-274q-23 0 -32 -9t-9 -32v-307q0 -23 9 -32t32 -9h422q68 0 67 -67v-88q0 -70 -67 -70h-662q-69 0 -69 70z" />
<glyph unicode="f" horiz-adv-x="829" d="M72 70v1228q0 70 69 70h611q68 0 67 -70v-88q0 -67 -65 -67h-2h-371q-23 0 -32 -9.5t-9 -31.5v-256q0 -23 9 -32t32 -9h274q68 0 68 -68v-90q0 -67 -66 -67h-2h-274q-23 0 -32 -9t-9 -32v-469q0 -70 -70 -70h-129q-70 0 -69 70z" />
<glyph unicode="g" horiz-adv-x="1001" d="M51 684q0 223 6 334q10 180 84 265t258 85h371q68 0 68 -70v-88q0 -67 -66 -67h-2h-371q-80 0 -80 -92v-629q0 -117 40 -172t151 -55t150.5 55t39.5 172v135q0 23 -9 32t-32 9h-63q-68 0 -68 70v88q0 67 66 67h2h297h2q66 0 66 -67v-387q0 -211 -106.5 -305.5 t-344.5 -94.5t-341 91.5t-114 297.5q-4 90 -4 326z" />
<glyph unicode="h" horiz-adv-x="1087" d="M72 70v1228q0 70 69 70h129q70 0 70 -70v-438q0 -23 9 -32t32 -9h326q23 0 32 9.5t9 31.5v438q0 70 69 70h129q70 0 70 -70v-1228q0 -70 -70 -70h-129q-70 0 -69 70v483q0 23 -9.5 32t-31.5 9h-326q-23 0 -32 -9t-9 -32v-483q0 -70 -70 -70h-129q-70 0 -69 70z" />
<glyph unicode="i" horiz-adv-x="411" d="M72 70v1228q0 70 69 70h129q70 0 70 -70v-1228q0 -70 -70 -70h-129q-70 0 -69 70z" />
<glyph unicode="j" horiz-adv-x="636" d="M0 70v88q0 67 66 67h2h192q23 0 32 9.5t9 31.5v1032q0 70 70 70h129q70 0 69 -70v-1085q0 -213 -213 -213h-288q-68 0 -68 70z" />
<glyph unicode="k" horiz-adv-x="1073" d="M72 70v1228q0 70 69 70h129q70 0 70 -70v-479l385 504q35 45 94 45h180q33 0 39 -24.5t-12 -45.5l-342 -444l403 -793q6 -12 6 -22q0 -11 -7 -21q-13 -18 -46 -18h-149q-74 0 -94 45l-310 610l-147 -141v-444q0 -70 -70 -70h-129q-70 0 -69 70z" />
<glyph unicode="l" horiz-adv-x="870" d="M72 70v1228q-1 70 69 70h129q70 0 70 -70v-1032q0 -23 9 -32t32 -9h412q68 0 67 -67v-88q0 -70 -67 -70h-652q-70 0 -69 70z" />
<glyph unicode="m" horiz-adv-x="1294" d="M72 70v1228q0 70 69 70h172q47 0 74 -55l260 -537l264 537q27 55 78 55h164q70 0 70 -70v-1228q0 -70 -70 -70h-129q-70 0 -70 70v786l-225 -457q-23 -45 -61 -45h-45q-39 0 -62 45l-225 461v-790q0 -70 -70 -70h-125q-70 0 -69 70z" />
<glyph unicode="n" horiz-adv-x="1101" d="M72 70v1228q0 70 69 70h156q33 0 51.5 -14.5t38.5 -55.5l379 -772v772q0 70 70 70h125q70 0 69 -70v-1228q0 -70 -69 -70h-136q-33 0 -51 14.5t-39 55.5l-399 813v-813q0 -70 -70 -70h-125q-70 0 -69 70z" />
<glyph unicode="o" d="M51 684q0 283 12 371q51 344 446.5 344t446.5 -344q12 -88 13 -371q0 -285 -13 -373q-25 -164 -129 -253t-317 -89t-317.5 89t-129.5 253q-12 88 -12 373zM319 422q0 -117 40 -172t151 -55t150.5 55t39.5 172v524q0 117 -39.5 172.5t-150.5 55.5t-151 -55.5t-40 -172.5 v-524z" />
<glyph unicode="p" horiz-adv-x="989" d="M72 68v1230q0 70 69 70h389q190 0 304 -109.5t114 -310t-114 -310.5t-304 -110h-149q-23 0 -32 -9t-9 -32v-419q0 -68 -68 -68h-131q-70 0 -69 68zM340 795q0 -23 9 -32t32 -9h113q94 0 140 46t46 148.5t-46 148.5t-140 46h-113q-23 0 -32 -9.5t-9 -31.5v-307z" />
<glyph unicode="q" d="M51 684q0 283 12 371q51 344 446.5 344t446.5 -344q12 -88 13 -371q0 -285 -13 -373q-43 -283 -313 -329v-117q0 -70 -70 -70h-124q-70 0 -70 70v115q-274 47 -316 331q-12 88 -12 373zM319 422q0 -117 40 -172t151 -55t150.5 55t39.5 172v524q0 117 -39.5 172.5 t-150.5 55.5t-151 -55.5t-40 -172.5v-524z" />
<glyph unicode="r" horiz-adv-x="995" d="M72 68v1230q0 70 69 70h389q190 0 304 -106.5t114 -300.5q0 -248 -182 -353l223 -542q5 -12 5 -24q0 -10 -4 -20q-9 -22 -40 -22h-176q-53 0 -69 41l-179 469q-16 43 -55 43h-90q-23 0 -32 -9t-9 -32v-444q0 -68 -68 -68h-131q-70 0 -69 68zM340 819q0 -23 9 -32t32 -9 h113q186 0 186 182.5t-186 182.5h-113q-23 0 -32 -9.5t-9 -31.5v-283z" />
<glyph unicode="s" horiz-adv-x="937" d="M31 1139q0 229 256 229h483q68 0 68 -70v-88q0 -67 -68 -67h-399q-33 0 -39 -24.5t14 -47.5l459 -604q68 -90 90.5 -135t22.5 -105q0 -109 -66 -168t-182 -59h-570q-68 0 -67 68v90q0 67 65 67h2h457q41 0 48 30t-13 54l-475 621q-86 115 -86 209z" />
<glyph unicode="t" horiz-adv-x="886" d="M10 1210v88q0 70 68 70h731q68 0 68 -70v-88q0 -67 -66 -67h-2h-191q-23 0 -31.5 -9.5t-8.5 -31.5v-1032q0 -70 -70 -70h-129q-70 0 -70 70v1032q0 23 -9 32t-32 9h-190q-68 0 -68 67z" />
<glyph unicode="u" horiz-adv-x="1052" d="M68 369v929q0 70 69 70h129q70 0 70 -70v-876q0 -117 40 -172t150.5 -55t150.5 55t40 172v876q0 70 69 70h129q70 0 70 -70v-929q0 -211 -109.5 -305.5t-349 -94.5t-349 94.5t-109.5 305.5z" />
<glyph unicode="v" horiz-adv-x="1026" d="M14 1298q-4 16 -4 28q0 42 53 42h144q72 0 88 -59l240 -852l241 852q16 59 88 59h140q54 0 54 -41q0 -12 -5 -29l-371 -1237q-10 -35 -23.5 -48t-46.5 -13h-161q-33 0 -46.5 13.5t-23.5 47.5z" />
<glyph unicode="w" horiz-adv-x="1665" d="M14 1298q-4 16 -4 28q0 42 53 42h148q72 0 88 -59l240 -848l178 602l-70 235q-4 16 -4 28q0 42 53 42h131q72 0 88 -59l252 -842l242 842q16 59 88 59h145q54 0 54 -42q0 -12 -4 -28l-371 -1237q-10 -35 -23.5 -48t-46.5 -13h-164q-33 0 -46 13.5t-23 47.5l-168 555 l-162 -555q-10 -35 -23.5 -48t-46.5 -13h-167q-33 0 -46.5 13.5t-23.5 47.5z" />
<glyph unicode="x" horiz-adv-x="950" d="M7 22q-5 10 -5 21q0 13 8 27l336 643l-305 585q-14 29 -3 49.5t44 20.5h172q33 0 48 -10t32 -39l153 -328l160 328q16 29 31.5 39t48.5 10h166q33 0 44 -20.5t-3 -49.5l-305 -583l336 -645q8 -14 8 -27q0 -11 -5 -21q-11 -22 -44 -22h-172q-33 0 -48.5 10t-31.5 39 l-187 387l-188 -387q-16 -29 -31.5 -39t-48.5 -10h-166q-33 0 -44 22z" />
<glyph unicode="y" horiz-adv-x="960" d="M12 1298q-7 15 -7 28t7 22q15 20 49 20h146q35 0 51 -9t29 -36l209 -500l209 500q12 27 28.5 36t50.5 9h144q35 0 49 -20q7 -9 7 -21.5t-7 -28.5l-348 -772v-456q0 -70 -70 -70h-129q-70 0 -70 70v452z" />
<glyph unicode="z" horiz-adv-x="907" d="M-10 215q0 51 18.5 101.5t35.5 77t54 73.5l467 604q20 23 14.5 47.5t-38.5 24.5h-404q-68 0 -67 67v88q0 70 67 70h484q256 0 257 -229q0 -94 -87 -209l-480 -621q-20 -25 -13 -54.5t48 -29.5h461q68 0 67 -67v-90q0 -68 -67 -68h-569q-113 0 -180.5 55.5t-67.5 159.5z " />
<glyph unicode="{" horiz-adv-x="575" d="M10 633v106q0 53 64 54q59 0 59 53v545q0 98 49 159.5t158 61.5h205q51 0 51 -43v-127q0 -43 -51 -43h-115q-25 0 -33 -8.5t-8 -32.5v-451q0 -55 -15.5 -99t-37 -65.5t-44 -36t-38.5 -18.5l-14 -2q6 0 16 -3t35.5 -17.5t45 -36t36 -65.5t16.5 -99v-451q0 -25 8.5 -33 t32.5 -8h115q51 0 51 -43v-127q0 -43 -51 -43h-205q-109 0 -158 62t-49 160v544q0 53 -59 54q-63 0 -64 53z" />
<glyph unicode="|" horiz-adv-x="411" d="M92 -96v1556q0 70 68 70h90q69 0 69 -70v-1556q0 -68 -69 -68h-90q-68 0 -68 68z" />
<glyph unicode="}" horiz-adv-x="575" d="M-20 -70q0 43 51 43h114q25 0 33 8.5t8 32.5v451q0 55 15.5 99t37 65.5t44 36t36.5 18.5l17 2q-6 0 -16.5 3t-36 17.5t-45 36t-36 65.5t-16.5 99v451q0 25 -8 33t-33 8h-114q-51 0 -51 43v127q0 43 51 43h205q109 0 157.5 -61.5t48.5 -159.5v-545q0 -53 60 -53 q63 0 63 -54v-106q0 -53 -63 -53q-60 -1 -60 -54v-544q0 -98 -49 -160t-157 -62h-205q-51 0 -51 43v127z" />
<glyph unicode="~" horiz-adv-x="1058" d="M51 688q0 137 71 221t204 84q94 0 222 -75.5t169 -75.5q80 0 80 96q0 53 37 53h122q51 0 52 -84q0 -137 -71 -221t-204 -84q-94 0 -222 76t-169 76q-80 0 -80 -97q0 -53 -37 -53h-123q-51 0 -51 84z" />
<glyph unicode="&#xa1;" horiz-adv-x="407" d="M61 68l17 839q0 68 63 68h125q63 0 64 -68l16 -839q0 -68 -63 -68h-158q-63 0 -64 68zM61 1163v137q1 68 64 68h158q63 0 63 -68v-137q0 -68 -63 -67h-158q-63 0 -64 67z" />
<glyph unicode="&#xa2;" horiz-adv-x="624" d="M51 741q-6 141 0 297q8 154 64.5 231t189.5 93v88q0 33 14.5 47t47.5 14h63q35 0 48.5 -14t13.5 -47v-82h51q68 0 67 -70v-88q0 -68 -67 -67h-150q-80 0 -80 -92v-322q0 -92 82 -92h148q68 0 67 -68v-88q0 -70 -67 -69h-51v-84q0 -33 -13.5 -47.5t-48.5 -14.5h-63 q-33 0 -47.5 14.5t-14.5 47.5v88q-133 18 -189.5 94.5t-64.5 230.5z" />
<glyph unicode="&#xa3;" horiz-adv-x="780" d="M-10 653v90q0 63 63 64h82l60 412q20 150 153 149h303q68 0 68 -68v-81q0 -68 -68 -68h-166q-25 0 -33 -8t-12 -33l-43 -303h156q63 0 63 -64v-90q0 -63 -63 -63h-186l-45 -316q-8 -57 49 -57h342q68 0 67 -67v-82q0 -68 -67 -68h-416q-274 0 -236 276l43 314h-51 q-63 0 -63 63z" />
<glyph unicode="&#xa4;" horiz-adv-x="1138" d="M102 412l123 123q-59 94 -59 210.5t59 210.5l-123 123l134 133l122 -122q98 59 211 59t211 -59l123 122l133 -133l-123 -123q59 -98 59.5 -210.5t-59.5 -210.5l123 -123l-133 -133l-123 122q-94 -59 -210.5 -59t-211.5 59l-122 -122zM371 745.5q0 -81.5 58 -140 t140 -58.5t140.5 58.5t58.5 140t-58.5 140t-140.5 58.5t-140 -58.5t-58 -140z" />
<glyph unicode="&#xa5;" horiz-adv-x="911" d="M18 1298q-12 31 1.5 50.5t48.5 19.5h131q35 0 52 -9t28 -36l190 -502l190 502q10 27 28 36t52 9h129q35 0 48.5 -19.5t1.5 -50.5l-248 -593h129q63 0 63 -64v-90q0 -63 -63 -64h-201v-417q0 -70 -70 -70h-120q-70 0 -70 70v417h-201q-63 0 -63 64v90q0 63 63 64h127z" />
<glyph unicode="&#xa6;" horiz-adv-x="411" d="M92 -96v651q0 70 68 70h90q69 0 69 -70v-651q0 -68 -69 -68h-90q-68 0 -68 68zM92 809v651q0 70 68 70h90q69 0 69 -70v-651q0 -68 -69 -68h-90q-68 0 -68 68z" />
<glyph unicode="&#xa7;" horiz-adv-x="747" d="M31 651q0 143 127 223q-109 98 -109 229.5t97.5 211.5t240.5 80q111 0 181.5 -33t70.5 -78v-72q0 -53 -49 -53q-14 0 -82 11.5t-109 11.5q-100 0 -100 -78q0 -41 65.5 -86t143.5 -85t143.5 -122t65.5 -188q0 -156 -109 -240q88 -96 88 -215q0 -162 -100 -248t-268 -86 q-49 0 -108.5 10.5t-119 45t-59.5 85.5v48q0 31 17.5 48t37.5 17q23 0 88.5 -20.5t137.5 -20.5q55 0 85.5 29.5t30.5 81.5q0 43 -42 80.5t-102.5 73.5t-119.5 77t-101 108.5t-42 153.5zM272 664q0 -35 37 -68t113 -76q6 2 15 6t25.5 25.5t16.5 50.5q0 63 -149 148 q-57 -20 -58 -86z" />
<glyph unicode="&#xa8;" horiz-adv-x="628" d="M31 1001v136q0 47 47 47h145q47 0 47 -47v-136q0 -47 -47 -47h-145q-47 0 -47 47zM359 1001v136q0 47 47 47h145q47 0 47 -47v-136q0 -47 -47 -47h-145q-47 0 -47 47z" />
<glyph unicode="&#xa9;" horiz-adv-x="1572" d="M72 684q0 297 208.5 506t505.5 209t506 -209t209 -506t-209 -506t-506 -209t-505.5 209t-208.5 506zM170 684q0 -254 181 -435t435 -181t435.5 181t181.5 435t-181.5 435t-435.5 181t-435 -181t-181 -435zM539 684q0 137 4 203q6 106 51 157.5t145 51.5h217q45 0 45 -43 v-58q0 -45 -45 -45h-206q-37 0 -37 -39v-454q0 -39 37 -39h206q45 0 45 -45v-58q0 -43 -45 -43h-217q-100 0 -145 51.5t-51 157.5q-4 66 -4 203z" />
<glyph unicode="&#xaa;" horiz-adv-x="507" d="M10 795l158 542q8 31 41 31h106q33 0 41 -31l154 -542q6 -16 -1 -29.5t-28 -13.5h-69q-35 0 -43 30l-29 117q-2 8 -10 8h-142q-8 0 -10 -8l-31 -117q-8 -31 -43 -30h-65q-20 0 -27.5 13t-1.5 30zM213 1036q-4 -8 4 -8h84q8 0 4 8l-47 178z" />
<glyph unicode="&#xab;" horiz-adv-x="825" d="M55 328q-31 53 0 106l172 297q18 31 49 31h154q20 0 29.5 -14.5t-2.5 -36.5l-176 -330l176 -330q12 -23 3 -37t-30 -14h-154q-31 0 -49 31zM426 328q-31 53 0 106l172 297q18 31 49 31h154q20 0 28.5 -14.5t-2.5 -36.5l-176 -330l176 -330q10 -23 2 -37t-28 -14h-154 q-31 0 -49 31z" />
<glyph unicode="&#xac;" horiz-adv-x="1263" d="M102 621v253h1059v-681h-258v428h-801z" />
<glyph unicode="&#xad;" horiz-adv-x="614" d="M41 635v123q0 57 57 57h418q57 0 57 -57v-123q0 -57 -57 -57h-418q-57 0 -57 57z" />
<glyph unicode="&#xae;" horiz-adv-x="1261" d="M51 819.5q0 239.5 170 409.5t409.5 170t409.5 -170t170 -409.5t-170 -409.5t-409.5 -170t-409.5 170t-170 409.5zM150 819q0 -201 140 -341t340.5 -140t341 140t140.5 341t-140.5 341t-341 140t-340.5 -140t-140 -341zM444 545v545q0 39 39 38h174q90 0 143.5 -49 t53.5 -139q0 -111 -82 -164l96 -229q20 -43 -22 -43h-82q-29 0 -39 24l-80 207q-4 13 -31 13h-22q-8 0 -8 -9v-194q0 -41 -41 -41h-60q-39 0 -39 41zM584 879q0 -8 8 -9h49q74 0 74 70t-74 70h-49q-8 0 -8 -9v-122z" />
<glyph unicode="&#xaf;" horiz-adv-x="604" d="M31 1024v66q0 51 51 51h440q51 0 51 -51v-66q0 -51 -51 -51h-440q-51 0 -51 51z" />
<glyph unicode="&#xb0;" horiz-adv-x="626" d="M31 1116q0 117 83 200t199.5 83t199.5 -83t83 -200t-83 -199.5t-199.5 -82.5t-199.5 82.5t-83 199.5zM188 1116q0 -51 37 -88t88.5 -37t88 37t36.5 88t-36.5 88t-88 37t-88.5 -37t-37 -88z" />
<glyph unicode="&#xb1;" horiz-adv-x="743" d="M41 53v88q0 29 12.5 41t40.5 12h555q29 0 41 -12t12 -41v-88q0 -29 -12 -41t-41 -12h-555q-29 0 -41 12t-12 41zM41 553v88q0 29 12.5 41t40.5 12h178v180q0 29 12.5 41.5t41.5 12.5h92q29 0 41 -12.5t12 -41.5v-180h178q29 0 41 -12t12 -41v-88q0 -29 -12 -41t-41 -12 h-178v-181q0 -29 -12.5 -41t-40.5 -12h-92q-29 0 -41.5 12.5t-12.5 40.5v181h-178q-29 0 -41 12t-12 41z" />
<glyph unicode="&#xb2;" horiz-adv-x="444" d="M20 664v100q0 70 43 121l179 205q16 16 16 43v88q0 14 -14 14h-156q-43 0 -43 41v51q0 41 43 41h229q96 0 97 -98v-150q0 -59 -37 -100l-189 -217q-12 -16 -12 -31v-22h215q43 0 43 -41v-52q0 -41 -43 -41h-325q-45 0 -46 48z" />
<glyph unicode="&#xb3;" horiz-adv-x="477" d="M10 657v52q0 41 43 41h201q14 0 14 14v172q0 14 -14 14h-143q-43 0 -43 41v49q0 33 30 47l154 80q16 10 16 23v31q0 14 -14 14h-184q-43 0 -43 41v51q0 41 43 41h258q96 0 96 -98v-113q0 -31 -14.5 -49t-55.5 -41q72 -10 72 -96v-256q0 -98 -96 -99h-277q-43 0 -43 41z " />
<glyph unicode="&#xb4;" horiz-adv-x="391" d="M39 993l63 207q13 39 54 39h186q18 0 22.5 -13.5t-8.5 -29.5l-159 -211q-27 -31 -64 -31h-70q-12 0 -21 11.5t-3 27.5z" />
<glyph unicode="&#xb6;" horiz-adv-x="978" d="M31 940q0 207 128 317.5t306 110.5h463q61 0 61 -70v-18q0 -68 -61 -68h-47q-29 0 -29 -34v-1493q0 -68 -61 -68h-29q-59 0 -60 68v1493q0 35 -28 34h-53q-29 1 -29 -34v-1493q0 -68 -62 -68h-28q-59 0 -60 68v798q0 33 -24 33q-162 14 -274.5 123t-112.5 301zM180 938 q0 -119 63.5 -190.5t170.5 -77.5q28 -1 28 24v492q0 25 -28 24q-109 -6 -171.5 -79.5t-62.5 -192.5z" />
<glyph unicode="&#xb7;" horiz-adv-x="387" d="M51 615v137q0 68 64 67h157q63 0 64 -67v-137q-1 -68 -64 -68h-157q-63 0 -64 68z" />
<glyph unicode="&#xb8;" horiz-adv-x="466" d="M31 -389q0 35 28 35q10 0 36 -3t57 -3q109 0 108 81q0 78 -121 78q-25 0 -35 14.5t0 36.5l80 173h133l-59 -129q8 0 19.5 -2.5t42 -12.5t54 -27.5t43 -53.5t19.5 -85q0 -102 -71.5 -161.5t-202.5 -59.5t-131 49v70z" />
<glyph unicode="&#xb9;" horiz-adv-x="276" d="M-20 1276v51q0 41 43 41h149q43 0 43 -41v-665q0 -20 -12.5 -33t-30.5 -13h-68q-45 0 -45 46v559q0 14 -14 14h-22q-43 0 -43 41z" />
<glyph unicode="&#xba;" horiz-adv-x="503" d="M41 1061q0 121 6 160q25 162 205 161.5t205 -161.5q6 -39 6 -160t-6 -160q-25 -162 -205 -162t-205 162q-6 39 -6 160zM178 948q0 -45 15.5 -66.5t58.5 -21.5t58.5 21.5t15.5 66.5v226q0 45 -15.5 66.5t-58.5 21.5t-58.5 -21.5t-15.5 -66.5v-226z" />
<glyph unicode="&#xbb;" horiz-adv-x="825" d="M34 14.5q-9 14.5 3 36.5l176 330l-176 330q-12 23 -3 37t29 14h154q31 0 49 -31l172 -297q31 -53 0 -106l-172 -297q-18 -31 -49 -31h-154q-20 0 -29 14.5zM405.5 14.5q-8.5 14.5 2.5 36.5l176 330l-176 330q-10 23 -2 37t28 14h154q31 0 49 -31l172 -297q31 -53 0 -106 l-172 -297q-18 -31 -49 -31h-154q-20 0 -28.5 14.5z" />
<glyph unicode="&#xbc;" horiz-adv-x="1083" d="M11 1276v51q0 41 43 41h149q43 0 43 -41v-665q0 -20 -12.5 -33t-30.5 -13h-68q-45 0 -45 46v559q0 14 -14 14h-22q-43 0 -43 41zM68 51l571 1276q18 41 57 41h58q55 0 30 -51l-571 -1276q-18 -41 -57 -41h-58q-55 0 -30 51zM594 424v283q0 45 45 45h68q18 0 30.5 -12.5 t12.5 -32.5v-233q0 -14 14 -15h70q14 0 14 15v167q0 45 45 46h68q18 0 30.5 -12.5t12.5 -33.5v-167q0 -14 14 -15h23q43 0 43 -41v-51q0 -41 -43 -41h-23q-14 0 -14 -14v-266q0 -20 -12.5 -33t-30.5 -13h-68q-45 0 -45 46v268q0 14 -14 14h-141q-98 0 -99 96z" />
<glyph unicode="&#xbd;" horiz-adv-x="1013" d="M11 1276v51q0 41 43 41h149q43 0 43 -41v-665q0 -20 -12.5 -33t-30.5 -13h-68q-45 0 -45 46v559q0 14 -14 14h-22q-43 0 -43 41zM68 51l571 1276q18 41 57 41h58q55 0 30 -51l-571 -1276q-18 -41 -57 -41h-58q-55 0 -30 51zM569 47v100q0 70 43 121l179 205q16 16 16 43 v88q0 14 -14 14h-156q-43 0 -43 41v52q0 41 43 41h229q96 0 97 -99v-149q0 -59 -37 -101l-189 -217q-12 -14 -12 -30v-23h215q43 0 43 -41v-51q0 -41 -43 -41h-325q-45 0 -46 47z" />
<glyph unicode="&#xbe;" horiz-adv-x="1243" d="M20 657v52q0 41 43 41h201q14 0 14 14v172q0 14 -14 14h-143q-43 0 -43 41v49q0 33 30 47l154 80q16 10 16 23v31q0 14 -14 14h-184q-43 0 -43 41v51q0 41 43 41h258q96 0 96 -98v-113q0 -31 -14.5 -49t-55.5 -41q72 -10 72 -96v-256q0 -98 -96 -99h-277q-43 0 -43 41z M228 51l571 1276q18 41 57 41h58q55 0 30 -51l-571 -1276q-18 -41 -57 -41h-58q-55 0 -30 51zM753 424v283q0 45 45 45h68q18 0 30.5 -12.5t12.5 -32.5v-233q0 -14 14 -15h70q14 0 14 15v167q0 45 45 46h68q18 0 30.5 -12.5t12.5 -33.5v-167q0 -14 14 -15h23q43 0 43 -41 v-51q0 -41 -43 -41h-23q-14 0 -14 -14v-266q0 -20 -12.5 -33t-30.5 -13h-68q-45 0 -45 46v268q0 14 -14 14h-141q-98 0 -99 96z" />
<glyph unicode="&#xbf;" horiz-adv-x="778" d="M31 70v172q0 57 39 127l217 376q29 51 28 93v69q0 68 68 68h115q70 0 69 -68v-80q0 -76 -51 -168l-217 -393q-10 -16 -4 -28.5t27 -12.5h368q68 0 68 -67v-88q0 -70 -68 -70h-592q-68 0 -67 70zM299 1163v137q0 68 63 68h158q63 0 64 -68v-137q0 -68 -64 -67h-158 q-63 0 -63 67z" />
<glyph unicode="&#xc0;" horiz-adv-x="1085" d="M14 70l357 1228q21 70 78 70h229q57 0 78 -70l356 -1228q20 -70 -43 -70h-164q-33 0 -47 11.5t-24 43.5l-70 264q-10 35 -39 35h-328q-29 0 -39 -35l-69 -264q-10 -33 -24.5 -44t-47.5 -11h-160q-63 0 -43 70zM297 1718.5q4 14.5 22 14.5h187q41 0 53 -39l64 -207 q6 -16 -3.5 -27.5t-21.5 -11.5h-70q-37 0 -63 31l-160 211q-12 14 -8 28.5zM438 621q-10 -41 27 -41h184q45 0 35 41l-123 466z" />
<glyph unicode="&#xc1;" horiz-adv-x="1085" d="M14 70l357 1228q21 70 78 70h229q57 0 78 -70l356 -1228q20 -70 -43 -70h-164q-33 0 -47 11.5t-24 43.5l-70 264q-10 35 -39 35h-328q-29 0 -39 -35l-69 -264q-10 -33 -24.5 -44t-47.5 -11h-160q-63 0 -43 70zM438 621q-10 -41 27 -41h184q45 0 35 41l-123 466zM502 1487 l63 207q12 39 53 39h187q18 0 22 -14.5t-8 -28.5l-160 -211q-27 -31 -63 -31h-70q-12 0 -21 11t-3 28z" />
<glyph unicode="&#xc2;" horiz-adv-x="1085" d="M14 70l357 1228q21 70 78 70h229q57 0 78 -70l356 -1228q20 -70 -43 -70h-164q-33 0 -47 11.5t-24 43.5l-70 264q-10 35 -39 35h-328q-29 0 -39 -35l-69 -264q-10 -33 -24.5 -44t-47.5 -11h-160q-63 0 -43 70zM276.5 1459q-6.5 11 2.5 28l104 207q18 39 59 39h242 q41 0 59 -39l105 -207q8 -16 2 -27.5t-19 -11.5h-86q-37 0 -63 31l-119 139l-119 -139q-27 -31 -63 -31h-86q-12 0 -18.5 11zM438 621q-10 -41 27 -41h184q45 0 35 41l-123 466z" />
<glyph unicode="&#xc3;" horiz-adv-x="1085" d="M14 70l357 1228q21 70 78 70h229q57 0 78 -70l356 -1228q20 -70 -43 -70h-164q-33 0 -47 11.5t-24 43.5l-70 264q-10 35 -39 35h-328q-29 0 -39 -35l-69 -264q-10 -33 -24.5 -44t-47.5 -11h-160q-63 0 -43 70zM262 1503q0 92 44 150.5t134 58.5q59 0 134 -43t102 -43 q41 0 41 49q0 23 9 29t26 6h69q41 0 41 -55q0 -92 -44 -150.5t-134 -58.5q-59 0 -134 43t-101 43q-41 0 -41 -49q0 -23 -9.5 -29t-25.5 -6h-70q-41 0 -41 55zM438 621q-10 -41 27 -41h184q45 0 35 41l-123 466z" />
<glyph unicode="&#xc4;" horiz-adv-x="1085" d="M14 70l357 1228q21 70 78 70h229q57 0 78 -70l356 -1228q20 -70 -43 -70h-164q-33 0 -47 11.5t-24 43.5l-70 264q-10 35 -39 35h-328q-29 0 -39 -35l-69 -264q-10 -33 -24.5 -44t-47.5 -11h-160q-63 0 -43 70zM279 1495v135q0 47 47 47h145q47 0 47 -47v-135 q0 -47 -47 -47h-145q-47 0 -47 47zM438 621q-10 -41 27 -41h184q45 0 35 41l-123 466zM606 1495v135q0 47 47 47h146q47 0 47 -47v-135q0 -47 -47 -47h-146q-47 0 -47 47z" />
<glyph unicode="&#xc5;" horiz-adv-x="1085" d="M14 70l357 1228q21 70 78 70h229q57 0 78 -70l356 -1228q20 -70 -43 -70h-164q-33 0 -47 11.5t-24 43.5l-70 264q-10 35 -39 35h-328q-29 0 -39 -35l-69 -264q-10 -33 -24.5 -44t-47.5 -11h-160q-63 0 -43 70zM326 1665q0 98 69.5 168t168 70t168 -70t69.5 -168 t-69.5 -168t-168 -70t-168 70t-69.5 168zM438 621q-10 -41 27 -41h184q45 0 35 41l-123 466zM463 1665q0 -41 29.5 -70.5t70.5 -29.5t71 29.5t30 70.5t-30 70.5t-71 29.5t-70.5 -29.5t-29.5 -70.5z" />
<glyph unicode="&#xc6;" horiz-adv-x="1581" d="M14 70l588 1228q35 70 98 70h783q68 0 67 -70v-88q0 -68 -67 -67h-391q-23 0 -32 -9.5t-9 -31.5v-221q0 -23 9 -32t32 -9h274q68 0 68 -68v-90q0 -68 -68 -68h-274q-23 0 -32 -9t-9 -32v-307q0 -23 9 -32t32 -9h421q68 0 68 -67v-88q0 -70 -68 -70h-661q-70 0 -70 70v256 q-2 29 -39 28h-280q-25 0 -37 -28l-127 -281q-20 -45 -72 -45h-170q-63 0 -43 70zM561 621q-8 -16 0.5 -28.5t26.5 -12.5h160q35 0 34 41v487z" />
<glyph unicode="&#xc7;" horiz-adv-x="829" d="M51 684q0 229 6 340q10 176 83 260t235 84h366q68 0 68 -70v-88q0 -68 -68 -67h-344q-78 0 -78 -82v-754q0 -82 78 -82h344q68 0 68 -67v-88q0 -70 -68 -70h-233l-49 -106q8 0 19 -2.5t42 -12.5t54.5 -27.5t43 -53.5t19.5 -85q0 -102 -71.5 -161.5t-203 -59.5t-131.5 49 v70q0 35 29 35q10 0 36 -3t56 -3q109 0 109 81q0 78 -121 78q-25 0 -35 14.5t0 36.5l70 150q-162 0 -234.5 84t-83.5 260q-6 111 -6 340z" />
<glyph unicode="&#xc8;" horiz-adv-x="890" d="M72 70v1228q0 70 69 70h631q68 0 68 -70v-88q0 -68 -68 -67h-391q-23 0 -32 -9.5t-9 -31.5v-221q0 -23 9 -32t32 -9h274q68 0 68 -68v-90q0 -68 -68 -68h-274q-23 0 -32 -9t-9 -32v-307q0 -23 9 -32t32 -9h422q68 0 67 -67v-88q0 -70 -67 -70h-662q-69 0 -69 70z M221 1718.5q4 14.5 23 14.5h186q41 0 53 -39l64 -207q6 -16 -3 -27.5t-22 -11.5h-69q-37 0 -64 31l-160 211q-12 14 -8 28.5z" />
<glyph unicode="&#xc9;" horiz-adv-x="890" d="M72 70v1228q0 70 69 70h631q68 0 68 -70v-88q0 -68 -68 -67h-391q-23 0 -32 -9.5t-9 -31.5v-221q0 -23 9 -32t32 -9h274q68 0 68 -68v-90q0 -68 -68 -68h-274q-23 0 -32 -9t-9 -32v-307q0 -23 9 -32t32 -9h422q68 0 67 -67v-88q0 -70 -67 -70h-662q-69 0 -69 70z M367 1487l63 207q12 39 53 39h187q18 0 22 -14.5t-8 -28.5l-160 -211q-27 -31 -63 -31h-70q-12 0 -21.5 11t-2.5 28z" />
<glyph unicode="&#xca;" horiz-adv-x="890" d="M72 70v1228q0 70 69 70h631q68 0 68 -70v-88q0 -68 -68 -67h-391q-23 0 -32 -9.5t-9 -31.5v-221q0 -23 9 -32t32 -9h274q68 0 68 -68v-90q0 -68 -68 -68h-274q-23 0 -32 -9t-9 -32v-307q0 -23 9 -32t32 -9h422q68 0 67 -67v-88q0 -70 -67 -70h-662q-69 0 -69 70z M162 1459q-6 11 2 28l104 207q19 39 60 39h241q41 0 60 -39l104 -207q8 -16 2 -27.5t-18 -11.5h-86q-37 0 -64 31l-118 139l-119 -139q-27 -31 -64 -31h-86q-12 0 -18 11z" />
<glyph unicode="&#xcb;" horiz-adv-x="890" d="M72 70v1228q0 70 69 70h631q68 0 68 -70v-88q0 -68 -68 -67h-391q-23 0 -32 -9.5t-9 -31.5v-221q0 -23 9 -32t32 -9h274q68 0 68 -68v-90q0 -68 -68 -68h-274q-23 0 -32 -9t-9 -32v-307q0 -23 9 -32t32 -9h422q68 0 67 -67v-88q0 -70 -67 -70h-662q-69 0 -69 70z M168 1495v135q0 47 47 47h145q47 0 48 -47v-135q0 -47 -48 -47h-145q-47 0 -47 47zM496 1495v135q0 47 47 47h145q47 0 47 -47v-135q0 -47 -47 -47h-145q-47 0 -47 47z" />
<glyph unicode="&#xcc;" horiz-adv-x="411" d="M-35 1718.5q4 14.5 23 14.5h186q41 0 53 -39l64 -207q6 -16 -3 -27.5t-22 -11.5h-69q-37 0 -64 31l-160 211q-12 14 -8 28.5zM76 70v1228q0 70 69 70h129q70 0 70 -70v-1228q0 -70 -70 -70h-129q-70 0 -69 70z" />
<glyph unicode="&#xcd;" horiz-adv-x="411" d="M72 70v1228q0 70 69 70h129q70 0 70 -70v-1228q0 -70 -70 -70h-129q-70 0 -69 70zM145 1487l64 207q12 39 53 39h187q18 0 22 -14.5t-8 -28.5l-160 -211q-27 -31 -63 -31h-70q-12 0 -21.5 11t-3.5 28z" />
<glyph unicode="&#xce;" horiz-adv-x="411" d="M-73.5 1459q-6.5 11 1.5 28l105 207q18 39 59 39h242q41 0 59 -39l105 -207q8 -16 2 -27.5t-19 -11.5h-86q-37 0 -63 31l-119 139l-119 -139q-27 -31 -63 -31h-86q-12 0 -18.5 11zM78 70v1228q0 70 69 70h129q70 0 70 -70v-1228q0 -70 -70 -70h-129q-70 0 -69 70z" />
<glyph unicode="&#xcf;" horiz-adv-x="411" d="M-78 1495v135q0 47 47 47h146q47 0 47 -47v-135q0 -47 -47 -47h-146q-47 0 -47 47zM72 70v1228q0 70 69 70h129q70 0 70 -70v-1228q0 -70 -70 -70h-129q-70 0 -69 70zM250 1495v135q0 47 47 47h145q47 0 47 -47v-135q0 -47 -47 -47h-145q-47 0 -47 47z" />
<glyph unicode="&#xd0;" horiz-adv-x="1058" d="M-23 649v80q0 70 68 70h27v499q0 70 69 70h408q221 0 319.5 -87t122.5 -253q16 -109 16.5 -344t-16.5 -344q-25 -166 -123 -253t-319 -87h-408q-70 0 -69 70v512h-27q-68 0 -68 67zM340 266q0 -23 9 -32t32 -9h168q111 0 150.5 53.5t39.5 167.5v476q0 115 -39.5 168 t-150.5 53h-168q-23 0 -32 -9.5t-9 -31.5v-303h190q68 0 68 -70v-80q0 -68 -68 -67h-190v-316z" />
<glyph unicode="&#xd1;" horiz-adv-x="1101" d="M72 70v1228q0 70 69 70h156q33 0 51.5 -14.5t38.5 -55.5l379 -772v772q0 70 70 70h125q70 0 69 -70v-1228q0 -70 -69 -70h-136q-33 0 -51 14.5t-39 55.5l-399 813v-813q0 -70 -70 -70h-125q-70 0 -69 70zM250 1503q0 92 44 150.5t134 58.5q59 0 134 -43t102 -43 q41 0 41 49q0 23 9 29t25 6h70q41 0 41 -55q0 -92 -44 -150.5t-134 -58.5q-59 0 -134 43t-102 43q-41 0 -41 -49q0 -23 -9.5 -29t-25.5 -6h-69q-41 0 -41 55z" />
<glyph unicode="&#xd2;" d="M51 684q0 283 12 371q51 344 446.5 344t446.5 -344q12 -88 13 -371q0 -285 -13 -373q-25 -164 -129 -253t-317 -89t-317.5 89t-129.5 253q-12 88 -12 373zM264 1718.5q4 14.5 23 14.5h186q41 0 53 -39l64 -207q6 -16 -3 -27.5t-22 -11.5h-69q-37 0 -64 31l-160 211 q-12 14 -8 28.5zM319 422q0 -117 40 -172t151 -55t150.5 55t39.5 172v524q0 117 -39.5 172.5t-150.5 55.5t-151 -55.5t-40 -172.5v-524z" />
<glyph unicode="&#xd3;" d="M51 684q0 283 12 371q51 344 446.5 344t446.5 -344q12 -88 13 -371q0 -285 -13 -373q-25 -164 -129 -253t-317 -89t-317.5 89t-129.5 253q-12 88 -12 373zM319 422q0 -117 40 -172t151 -55t150.5 55t39.5 172v524q0 117 -39.5 172.5t-150.5 55.5t-151 -55.5t-40 -172.5 v-524zM449 1487l63 207q12 39 53 39h187q18 0 22 -14.5t-8 -28.5l-160 -211q-27 -31 -63 -31h-70q-12 0 -21.5 11t-2.5 28z" />
<glyph unicode="&#xd4;" d="M51 684q0 283 12 371q51 344 446.5 344t446.5 -344q12 -88 13 -371q0 -285 -13 -373q-25 -164 -129 -253t-317 -89t-317.5 89t-129.5 253q-12 88 -12 373zM223.5 1459q-6.5 11 1.5 28l105 207q18 39 59 39h242q41 0 59 -39l105 -207q8 -16 2 -27.5t-19 -11.5h-86 q-37 0 -63 31l-119 139l-119 -139q-27 -31 -63 -31h-86q-12 0 -18.5 11zM319 422q0 -117 40 -172t151 -55t150.5 55t39.5 172v524q0 117 -39.5 172.5t-150.5 55.5t-151 -55.5t-40 -172.5v-524z" />
<glyph unicode="&#xd5;" d="M51 684q0 283 12 371q51 344 446.5 344t446.5 -344q12 -88 13 -371q0 -285 -13 -373q-25 -164 -129 -253t-317 -89t-317.5 89t-129.5 253q-12 88 -12 373zM209 1503q0 92 44 150.5t134 58.5q59 0 134 -43t102 -43q41 0 41 49q0 23 9 29t25 6h70q41 0 41 -55 q0 -92 -44 -150.5t-134 -58.5q-59 0 -134 43t-102 43q-41 0 -41 -49q0 -23 -9.5 -29t-25.5 -6h-69q-41 0 -41 55zM319 422q0 -117 40 -172t151 -55t150.5 55t39.5 172v524q0 117 -39.5 172.5t-150.5 55.5t-151 -55.5t-40 -172.5v-524z" />
<glyph unicode="&#xd6;" d="M51 684q0 283 12 371q51 344 446.5 344t446.5 -344q12 -88 13 -371q0 -285 -13 -373q-25 -164 -129 -253t-317 -89t-317.5 89t-129.5 253q-12 88 -12 373zM225 1495v135q0 47 47 47h146q47 0 47 -47v-135q0 -47 -47 -47h-146q-47 0 -47 47zM319 422q0 -117 40 -172 t151 -55t150.5 55t39.5 172v524q0 117 -39.5 172.5t-150.5 55.5t-151 -55.5t-40 -172.5v-524zM553 1495v135q0 47 47 47h145q47 0 48 -47v-135q0 -47 -48 -47h-145q-47 0 -47 47z" />
<glyph unicode="&#xd7;" horiz-adv-x="698" d="M98 324q-37 37 0 75l148 148l-148 149q-37 39 0 76l64 64q37 37 76 0l147 -150l150 150q39 37 75 0l64 -64q37 -37 0 -76l-150 -149l150 -148q37 -38 0 -75l-64 -64q-37 -37 -75 0l-150 148l-147 -148q-39 -37 -76 0z" />
<glyph unicode="&#xd8;" d="M59 684q0 283 13 371q51 344 446 344q115 0 201 -29l41 90q29 61 92 33l72 -33q61 -29 32 -92l-59 -127q53 -80 68 -186q12 -88 12 -371q0 -285 -12 -373q-25 -164 -129.5 -253t-317.5 -89q-115 0 -201 29l-41 -90q-29 -61 -92 -33l-71 33q-61 29 -33 92l57 125 q-49 76 -65 186q-12 88 -13 373zM328 422q0 -117 40 -172t150.5 -55t150.5 55t40 172v524q0 117 -40 172.5t-150.5 55.5t-150.5 -55.5t-40 -172.5v-524z" />
<glyph unicode="&#xd9;" horiz-adv-x="1052" d="M68 369v929q0 70 69 70h129q70 0 70 -70v-876q0 -117 40 -172t150.5 -55t150.5 55t40 172v876q0 70 69 70h129q70 0 70 -70v-929q0 -211 -109.5 -305.5t-349 -94.5t-349 94.5t-109.5 305.5zM281 1718.5q4 14.5 22 14.5h186q41 0 54 -39l63 -207q6 -16 -3 -27.5t-21 -11.5 h-70q-37 0 -63 31l-160 211q-12 14 -8 28.5z" />
<glyph unicode="&#xda;" horiz-adv-x="1052" d="M68 369v929q0 70 69 70h129q70 0 70 -70v-876q0 -117 40 -172t150.5 -55t150.5 55t40 172v876q0 70 69 70h129q70 0 70 -70v-929q0 -211 -109.5 -305.5t-349 -94.5t-349 94.5t-109.5 305.5zM444 1487l64 207q12 39 53 39h187q18 0 22 -14.5t-8 -28.5l-160 -211 q-27 -31 -63 -31h-70q-12 0 -21.5 11t-3.5 28z" />
<glyph unicode="&#xdb;" horiz-adv-x="1052" d="M68 369v929q0 70 69 70h129q70 0 70 -70v-876q0 -117 40 -172t150.5 -55t150.5 55t40 172v876q0 70 69 70h129q70 0 70 -70v-929q0 -211 -109.5 -305.5t-349 -94.5t-349 94.5t-109.5 305.5zM239.5 1459q-6.5 11 2.5 28l104 207q19 39 60 39h241q41 0 60 -39l104 -207 q8 -16 2 -27.5t-18 -11.5h-86q-37 0 -64 31l-119 139l-118 -139q-27 -31 -64 -31h-86q-12 0 -18.5 11z" />
<glyph unicode="&#xdc;" horiz-adv-x="1052" d="M68 369v929q0 70 69 70h129q70 0 70 -70v-876q0 -117 40 -172t150.5 -55t150.5 55t40 172v876q0 70 69 70h129q70 0 70 -70v-929q0 -211 -109.5 -305.5t-349 -94.5t-349 94.5t-109.5 305.5zM242 1495v135q0 47 47 47h145q47 0 47 -47v-135q0 -47 -47 -47h-145 q-47 0 -47 47zM569 1495v135q0 47 47 47h146q47 0 47 -47v-135q0 -47 -47 -47h-146q-47 0 -47 47z" />
<glyph unicode="&#xdd;" horiz-adv-x="960" d="M12 1298q-14 31 0.5 50.5t48.5 19.5h146q35 0 51 -9t29 -36l209 -500l209 500q12 27 28.5 36t50.5 9h144q35 0 49 -19.5t0 -50.5l-348 -772v-456q0 -70 -70 -70h-129q-70 0 -70 70v452zM414 1487l63 207q12 39 53 39h187q18 0 22 -14.5t-8 -28.5l-160 -211 q-27 -31 -63 -31h-70q-12 0 -21 11t-3 28z" />
<glyph unicode="&#xde;" horiz-adv-x="989" d="M72 68v1232q0 68 69 68h131q68 0 68 -68v-141q0 -39 31 -41h159q190 0 304 -109.5t114 -310t-113.5 -310t-304.5 -109.5h-149q-23 0 -32 -9.5t-9 -31.5v-170q0 -68 -68 -68h-131q-69 0 -69 68zM340 545q0 -23 9 -32t32 -9h113q94 0 140 46t46 148.5t-46 148.5t-140 46 h-113q-23 0 -32 -9.5t-9 -31.5v-307z" />
<glyph unicode="&#xdf;" horiz-adv-x="1837" d="M31 1139q0 229 256 229h483q68 0 68 -70v-88q0 -67 -68 -67h-399q-33 0 -39 -24.5t14 -47.5l459 -604q68 -90 90.5 -135t22.5 -105q0 -109 -66 -168t-182 -59h-570q-68 0 -67 68v90q0 68 67 67h457q41 0 48 30t-13 54l-475 621q-86 115 -86 209zM930 1139q0 229 256 229 h483q68 0 68 -70v-88q0 -67 -68 -67h-399q-33 0 -39 -24.5t14 -47.5l459 -604q68 -90 90.5 -135t22.5 -105q0 -109 -65.5 -168t-182.5 -59h-529q-68 0 -67 68v90q0 68 67 67h416q41 0 48 30t-13 54l-475 621q-86 115 -86 209z" />
<glyph unicode="&#xe0;" horiz-adv-x="1085" d="M14 70l357 1228q21 70 78 70h229q57 0 78 -70l356 -1228q20 -70 -43 -70h-164q-33 0 -47 11.5t-24 43.5l-70 264q-10 35 -39 35h-328q-29 0 -39 -35l-69 -264q-10 -33 -24.5 -44t-47.5 -11h-160q-63 0 -43 70zM297 1718.5q4 14.5 22 14.5h187q41 0 53 -39l64 -207 q6 -16 -3.5 -27.5t-21.5 -11.5h-70q-37 0 -63 31l-160 211q-12 14 -8 28.5zM438 621q-10 -41 27 -41h184q45 0 35 41l-123 466z" />
<glyph unicode="&#xe1;" horiz-adv-x="1085" d="M14 70l357 1228q21 70 78 70h229q57 0 78 -70l356 -1228q20 -70 -43 -70h-164q-33 0 -47 11.5t-24 43.5l-70 264q-10 35 -39 35h-328q-29 0 -39 -35l-69 -264q-10 -33 -24.5 -44t-47.5 -11h-160q-63 0 -43 70zM438 621q-10 -41 27 -41h184q45 0 35 41l-123 466zM502 1487 l63 207q12 39 53 39h187q18 0 22 -14.5t-8 -28.5l-160 -211q-27 -31 -63 -31h-70q-12 0 -21 11t-3 28z" />
<glyph unicode="&#xe2;" horiz-adv-x="1085" d="M14 70l357 1228q21 70 78 70h229q57 0 78 -70l356 -1228q20 -70 -43 -70h-164q-33 0 -47 11.5t-24 43.5l-70 264q-10 35 -39 35h-328q-29 0 -39 -35l-69 -264q-10 -33 -24.5 -44t-47.5 -11h-160q-63 0 -43 70zM276.5 1459q-6.5 11 2.5 28l104 207q18 39 59 39h242 q41 0 59 -39l105 -207q8 -16 2 -27.5t-19 -11.5h-86q-37 0 -63 31l-119 139l-119 -139q-27 -31 -63 -31h-86q-12 0 -18.5 11zM438 621q-10 -41 27 -41h184q45 0 35 41l-123 466z" />
<glyph unicode="&#xe3;" horiz-adv-x="1085" d="M14 70l357 1228q21 70 78 70h229q57 0 78 -70l356 -1228q20 -70 -43 -70h-164q-33 0 -47 11.5t-24 43.5l-70 264q-10 35 -39 35h-328q-29 0 -39 -35l-69 -264q-10 -33 -24.5 -44t-47.5 -11h-160q-63 0 -43 70zM262 1503q0 92 44 150.5t134 58.5q59 0 134 -43t102 -43 q41 0 41 49q0 23 9 29t26 6h69q41 0 41 -55q0 -92 -44 -150.5t-134 -58.5q-59 0 -134 43t-101 43q-41 0 -41 -49q0 -23 -9.5 -29t-25.5 -6h-70q-41 0 -41 55zM438 621q-10 -41 27 -41h184q45 0 35 41l-123 466z" />
<glyph unicode="&#xe4;" horiz-adv-x="1085" d="M14 70l357 1228q21 70 78 70h229q57 0 78 -70l356 -1228q20 -70 -43 -70h-164q-33 0 -47 11.5t-24 43.5l-70 264q-10 35 -39 35h-328q-29 0 -39 -35l-69 -264q-10 -33 -24.5 -44t-47.5 -11h-160q-63 0 -43 70zM279 1495v135q0 47 47 47h145q47 0 47 -47v-135 q0 -47 -47 -47h-145q-47 0 -47 47zM438 621q-10 -41 27 -41h184q45 0 35 41l-123 466zM606 1495v135q0 47 47 47h146q47 0 47 -47v-135q0 -47 -47 -47h-146q-47 0 -47 47z" />
<glyph unicode="&#xe5;" horiz-adv-x="1085" d="M14 70l357 1228q21 70 78 70h229q57 0 78 -70l356 -1228q20 -70 -43 -70h-164q-33 0 -47 11.5t-24 43.5l-70 264q-10 35 -39 35h-328q-29 0 -39 -35l-69 -264q-10 -33 -24.5 -44t-47.5 -11h-160q-63 0 -43 70zM326 1665q0 98 69.5 168t168 70t168 -70t69.5 -168 t-69.5 -168t-168 -70t-168 70t-69.5 168zM438 621q-10 -41 27 -41h184q45 0 35 41l-123 466zM463 1665q0 -41 29.5 -70.5t70.5 -29.5t71 29.5t30 70.5t-30 70.5t-71 29.5t-70.5 -29.5t-29.5 -70.5z" />
<glyph unicode="&#xe6;" horiz-adv-x="1581" d="M14 70l588 1228q35 70 98 70h783q68 0 67 -70v-88q0 -68 -67 -67h-391q-23 0 -32 -9.5t-9 -31.5v-221q0 -23 9 -32t32 -9h274q68 0 68 -68v-90q0 -68 -68 -68h-274q-23 0 -32 -9t-9 -32v-307q0 -23 9 -32t32 -9h421q68 0 68 -67v-88q0 -70 -68 -70h-661q-70 0 -70 70v256 q-2 29 -39 28h-280q-25 0 -37 -28l-127 -281q-20 -45 -72 -45h-170q-63 0 -43 70zM561 621q-8 -16 0.5 -28.5t26.5 -12.5h160q35 0 34 41v487z" />
<glyph unicode="&#xe7;" horiz-adv-x="829" d="M51 684q0 229 6 340q10 176 83 260t235 84h366q68 0 68 -70v-88q0 -68 -68 -67h-344q-78 0 -78 -82v-754q0 -82 78 -82h344q68 0 68 -67v-88q0 -70 -68 -70h-233l-49 -106q8 0 19 -2.5t42 -12.5t54.5 -27.5t43 -53.5t19.5 -85q0 -102 -71.5 -161.5t-203 -59.5t-131.5 49 v70q0 35 29 35q10 0 36 -3t56 -3q109 0 109 81q0 78 -121 78q-25 0 -35 14.5t0 36.5l70 150q-162 0 -234.5 84t-83.5 260q-6 111 -6 340z" />
<glyph unicode="&#xe8;" horiz-adv-x="890" d="M72 70v1228q0 70 69 70h631q68 0 68 -70v-88q0 -68 -68 -67h-391q-23 0 -32 -9.5t-9 -31.5v-221q0 -23 9 -32t32 -9h274q68 0 68 -68v-90q0 -68 -68 -68h-274q-23 0 -32 -9t-9 -32v-307q0 -23 9 -32t32 -9h422q68 0 67 -67v-88q0 -70 -67 -70h-662q-69 0 -69 70z M221 1718.5q4 14.5 23 14.5h186q41 0 53 -39l64 -207q6 -16 -3 -27.5t-22 -11.5h-69q-37 0 -64 31l-160 211q-12 14 -8 28.5z" />
<glyph unicode="&#xe9;" horiz-adv-x="890" d="M72 70v1228q0 70 69 70h631q68 0 68 -70v-88q0 -68 -68 -67h-391q-23 0 -32 -9.5t-9 -31.5v-221q0 -23 9 -32t32 -9h274q68 0 68 -68v-90q0 -68 -68 -68h-274q-23 0 -32 -9t-9 -32v-307q0 -23 9 -32t32 -9h422q68 0 67 -67v-88q0 -70 -67 -70h-662q-69 0 -69 70z M367 1487l63 207q12 39 53 39h187q18 0 22 -14.5t-8 -28.5l-160 -211q-27 -31 -63 -31h-70q-12 0 -21.5 11t-2.5 28z" />
<glyph unicode="&#xea;" horiz-adv-x="890" d="M72 70v1228q0 70 69 70h631q68 0 68 -70v-88q0 -68 -68 -67h-391q-23 0 -32 -9.5t-9 -31.5v-221q0 -23 9 -32t32 -9h274q68 0 68 -68v-90q0 -68 -68 -68h-274q-23 0 -32 -9t-9 -32v-307q0 -23 9 -32t32 -9h422q68 0 67 -67v-88q0 -70 -67 -70h-662q-69 0 -69 70z M162 1459q-6 11 2 28l104 207q19 39 60 39h241q41 0 60 -39l104 -207q8 -16 2 -27.5t-18 -11.5h-86q-37 0 -64 31l-118 139l-119 -139q-27 -31 -64 -31h-86q-12 0 -18 11z" />
<glyph unicode="&#xeb;" horiz-adv-x="890" d="M72 70v1228q0 70 69 70h631q68 0 68 -70v-88q0 -68 -68 -67h-391q-23 0 -32 -9.5t-9 -31.5v-221q0 -23 9 -32t32 -9h274q68 0 68 -68v-90q0 -68 -68 -68h-274q-23 0 -32 -9t-9 -32v-307q0 -23 9 -32t32 -9h422q68 0 67 -67v-88q0 -70 -67 -70h-662q-69 0 -69 70z M168 1495v135q0 47 47 47h145q47 0 48 -47v-135q0 -47 -48 -47h-145q-47 0 -47 47zM496 1495v135q0 47 47 47h145q47 0 47 -47v-135q0 -47 -47 -47h-145q-47 0 -47 47z" />
<glyph unicode="&#xec;" horiz-adv-x="411" d="M-35 1718.5q4 14.5 23 14.5h186q41 0 53 -39l64 -207q6 -16 -3 -27.5t-22 -11.5h-69q-37 0 -64 31l-160 211q-12 14 -8 28.5zM76 70v1228q0 70 69 70h129q70 0 70 -70v-1228q0 -70 -70 -70h-129q-70 0 -69 70z" />
<glyph unicode="&#xed;" horiz-adv-x="411" d="M72 70v1228q0 70 69 70h129q70 0 70 -70v-1228q0 -70 -70 -70h-129q-70 0 -69 70zM145 1487l64 207q12 39 53 39h187q18 0 22 -14.5t-8 -28.5l-160 -211q-27 -31 -63 -31h-70q-12 0 -21.5 11t-3.5 28z" />
<glyph unicode="&#xee;" horiz-adv-x="411" d="M-73.5 1459q-6.5 11 1.5 28l105 207q18 39 59 39h242q41 0 59 -39l105 -207q8 -16 2 -27.5t-19 -11.5h-86q-37 0 -63 31l-119 139l-119 -139q-27 -31 -63 -31h-86q-12 0 -18.5 11zM78 70v1228q0 70 69 70h129q70 0 70 -70v-1228q0 -70 -70 -70h-129q-70 0 -69 70z" />
<glyph unicode="&#xef;" horiz-adv-x="411" d="M-78 1495v135q0 47 47 47h146q47 0 47 -47v-135q0 -47 -47 -47h-146q-47 0 -47 47zM72 70v1228q0 70 69 70h129q70 0 70 -70v-1228q0 -70 -70 -70h-129q-70 0 -69 70zM250 1495v135q0 47 47 47h145q47 0 47 -47v-135q0 -47 -47 -47h-145q-47 0 -47 47z" />
<glyph unicode="&#xf0;" horiz-adv-x="1058" d="M-23 649v80q0 70 68 70h27v499q0 70 69 70h408q221 0 319.5 -87t122.5 -253q16 -109 16.5 -344t-16.5 -344q-25 -166 -123 -253t-319 -87h-408q-70 0 -69 70v512h-27q-68 0 -68 67zM340 266q0 -23 9 -32t32 -9h168q111 0 150.5 53.5t39.5 167.5v476q0 115 -39.5 168 t-150.5 53h-168q-23 0 -32 -9.5t-9 -31.5v-303h190q68 0 68 -70v-80q0 -68 -68 -67h-190v-316z" />
<glyph unicode="&#xf1;" horiz-adv-x="1101" d="M72 70v1228q0 70 69 70h156q33 0 51.5 -14.5t38.5 -55.5l379 -772v772q0 70 70 70h125q70 0 69 -70v-1228q0 -70 -69 -70h-136q-33 0 -51 14.5t-39 55.5l-399 813v-813q0 -70 -70 -70h-125q-70 0 -69 70zM250 1503q0 92 44 150.5t134 58.5q59 0 134 -43t102 -43 q41 0 41 49q0 23 9 29t25 6h70q41 0 41 -55q0 -92 -44 -150.5t-134 -58.5q-59 0 -134 43t-102 43q-41 0 -41 -49q0 -23 -9.5 -29t-25.5 -6h-69q-41 0 -41 55z" />
<glyph unicode="&#xf2;" d="M51 684q0 283 12 371q51 344 446.5 344t446.5 -344q12 -88 13 -371q0 -285 -13 -373q-25 -164 -129 -253t-317 -89t-317.5 89t-129.5 253q-12 88 -12 373zM264 1718.5q4 14.5 23 14.5h186q41 0 53 -39l64 -207q6 -16 -3 -27.5t-22 -11.5h-69q-37 0 -64 31l-160 211 q-12 14 -8 28.5zM319 422q0 -117 40 -172t151 -55t150.5 55t39.5 172v524q0 117 -39.5 172.5t-150.5 55.5t-151 -55.5t-40 -172.5v-524z" />
<glyph unicode="&#xf3;" d="M51 684q0 283 12 371q51 344 446.5 344t446.5 -344q12 -88 13 -371q0 -285 -13 -373q-25 -164 -129 -253t-317 -89t-317.5 89t-129.5 253q-12 88 -12 373zM319 422q0 -117 40 -172t151 -55t150.5 55t39.5 172v524q0 117 -39.5 172.5t-150.5 55.5t-151 -55.5t-40 -172.5 v-524zM449 1487l63 207q12 39 53 39h187q18 0 22 -14.5t-8 -28.5l-160 -211q-27 -31 -63 -31h-70q-12 0 -21.5 11t-2.5 28z" />
<glyph unicode="&#xf4;" d="M51 684q0 283 12 371q51 344 446.5 344t446.5 -344q12 -88 13 -371q0 -285 -13 -373q-25 -164 -129 -253t-317 -89t-317.5 89t-129.5 253q-12 88 -12 373zM223.5 1459q-6.5 11 1.5 28l105 207q18 39 59 39h242q41 0 59 -39l105 -207q8 -16 2 -27.5t-19 -11.5h-86 q-37 0 -63 31l-119 139l-119 -139q-27 -31 -63 -31h-86q-12 0 -18.5 11zM319 422q0 -117 40 -172t151 -55t150.5 55t39.5 172v524q0 117 -39.5 172.5t-150.5 55.5t-151 -55.5t-40 -172.5v-524z" />
<glyph unicode="&#xf5;" d="M51 684q0 283 12 371q51 344 446.5 344t446.5 -344q12 -88 13 -371q0 -285 -13 -373q-25 -164 -129 -253t-317 -89t-317.5 89t-129.5 253q-12 88 -12 373zM209 1503q0 92 44 150.5t134 58.5q59 0 134 -43t102 -43q41 0 41 49q0 23 9 29t25 6h70q41 0 41 -55 q0 -92 -44 -150.5t-134 -58.5q-59 0 -134 43t-102 43q-41 0 -41 -49q0 -23 -9.5 -29t-25.5 -6h-69q-41 0 -41 55zM319 422q0 -117 40 -172t151 -55t150.5 55t39.5 172v524q0 117 -39.5 172.5t-150.5 55.5t-151 -55.5t-40 -172.5v-524z" />
<glyph unicode="&#xf6;" d="M51 684q0 283 12 371q51 344 446.5 344t446.5 -344q12 -88 13 -371q0 -285 -13 -373q-25 -164 -129 -253t-317 -89t-317.5 89t-129.5 253q-12 88 -12 373zM225 1495v135q0 47 47 47h146q47 0 47 -47v-135q0 -47 -47 -47h-146q-47 0 -47 47zM319 422q0 -117 40 -172 t151 -55t150.5 55t39.5 172v524q0 117 -39.5 172.5t-150.5 55.5t-151 -55.5t-40 -172.5v-524zM553 1495v135q0 47 47 47h145q47 0 48 -47v-135q0 -47 -48 -47h-145q-47 0 -47 47z" />
<glyph unicode="&#xf7;" horiz-adv-x="743" d="M41 504v88q0 29 12.5 41t40.5 12h555q29 0 41 -12t12 -41v-88q0 -29 -12 -41t-41 -12h-555q-29 0 -41 12t-12 41zM272 246v73q0 29 12.5 41.5t41.5 12.5h92q29 0 41 -12.5t12 -41.5v-73q0 -29 -12.5 -41t-40.5 -12h-92q-29 0 -41.5 12t-12.5 41zM272 776v74q0 29 12.5 41 t41.5 12h92q29 0 41 -12t12 -41v-74q0 -29 -12 -41t-41 -12h-92q-29 0 -41.5 12.5t-12.5 40.5z" />
<glyph unicode="&#xf8;" d="M59 684q0 283 13 371q51 344 446 344q115 0 201 -29l41 90q29 61 92 33l72 -33q61 -29 32 -92l-59 -127q53 -80 68 -186q12 -88 12 -371q0 -285 -12 -373q-25 -164 -129.5 -253t-317.5 -89q-115 0 -201 29l-41 -90q-29 -61 -92 -33l-71 33q-61 29 -33 92l57 125 q-49 76 -65 186q-12 88 -13 373zM328 422q0 -117 40 -172t150.5 -55t150.5 55t40 172v524q0 117 -40 172.5t-150.5 55.5t-150.5 -55.5t-40 -172.5v-524z" />
<glyph unicode="&#xf9;" horiz-adv-x="1052" d="M68 369v929q0 70 69 70h129q70 0 70 -70v-876q0 -117 40 -172t150.5 -55t150.5 55t40 172v876q0 70 69 70h129q70 0 70 -70v-929q0 -211 -109.5 -305.5t-349 -94.5t-349 94.5t-109.5 305.5zM281 1718.5q4 14.5 22 14.5h186q41 0 54 -39l63 -207q6 -16 -3 -27.5t-21 -11.5 h-70q-37 0 -63 31l-160 211q-12 14 -8 28.5z" />
<glyph unicode="&#xfa;" horiz-adv-x="1052" d="M68 369v929q0 70 69 70h129q70 0 70 -70v-876q0 -117 40 -172t150.5 -55t150.5 55t40 172v876q0 70 69 70h129q70 0 70 -70v-929q0 -211 -109.5 -305.5t-349 -94.5t-349 94.5t-109.5 305.5zM444 1487l64 207q12 39 53 39h187q18 0 22 -14.5t-8 -28.5l-160 -211 q-27 -31 -63 -31h-70q-12 0 -21.5 11t-3.5 28z" />
<glyph unicode="&#xfb;" horiz-adv-x="1052" d="M68 369v929q0 70 69 70h129q70 0 70 -70v-876q0 -117 40 -172t150.5 -55t150.5 55t40 172v876q0 70 69 70h129q70 0 70 -70v-929q0 -211 -109.5 -305.5t-349 -94.5t-349 94.5t-109.5 305.5zM239.5 1459q-6.5 11 2.5 28l104 207q19 39 60 39h241q41 0 60 -39l104 -207 q8 -16 2 -27.5t-18 -11.5h-86q-37 0 -64 31l-119 139l-118 -139q-27 -31 -64 -31h-86q-12 0 -18.5 11z" />
<glyph unicode="&#xfc;" horiz-adv-x="1052" d="M68 369v929q0 70 69 70h129q70 0 70 -70v-876q0 -117 40 -172t150.5 -55t150.5 55t40 172v876q0 70 69 70h129q70 0 70 -70v-929q0 -211 -109.5 -305.5t-349 -94.5t-349 94.5t-109.5 305.5zM242 1495v135q0 47 47 47h145q47 0 47 -47v-135q0 -47 -47 -47h-145 q-47 0 -47 47zM569 1495v135q0 47 47 47h146q47 0 47 -47v-135q0 -47 -47 -47h-146q-47 0 -47 47z" />
<glyph unicode="&#xfd;" horiz-adv-x="960" d="M12 1298q-14 31 0.5 50.5t48.5 19.5h146q35 0 51 -9t29 -36l209 -500l209 500q12 27 28.5 36t50.5 9h144q35 0 49 -19.5t0 -50.5l-348 -772v-456q0 -70 -70 -70h-129q-70 0 -70 70v452zM414 1487l63 207q12 39 53 39h187q18 0 22 -14.5t-8 -28.5l-160 -211 q-27 -31 -63 -31h-70q-12 0 -21 11t-3 28z" />
<glyph unicode="&#xfe;" horiz-adv-x="989" d="M72 68v1232q0 68 69 68h131q68 0 68 -68v-141q0 -39 31 -41h159q190 0 304 -109.5t114 -310t-113.5 -310t-304.5 -109.5h-149q-23 0 -32 -9.5t-9 -31.5v-170q0 -68 -68 -68h-131q-69 0 -69 68zM340 545q0 -23 9 -32t32 -9h113q94 0 140 46t46 148.5t-46 148.5t-140 46 h-113q-23 0 -32 -9.5t-9 -31.5v-307z" />
<glyph unicode="&#xff;" horiz-adv-x="960" d="M12 1298q-14 31 0.5 50.5t48.5 19.5h146q35 0 51 -9t29 -36l209 -500l209 500q12 27 28.5 36t50.5 9h144q35 0 49 -19.5t0 -50.5l-348 -772v-456q0 -70 -70 -70h-129q-70 0 -70 70v452zM211 1495v135q0 47 47 47h145q47 0 48 -47v-135q0 -47 -48 -47h-145q-47 0 -47 47z M539 1495v135q0 47 47 47h145q47 0 47 -47v-135q0 -47 -47 -47h-145q-47 0 -47 47z" />
<glyph unicode="&#x152;" horiz-adv-x="1519" d="M51 684q0 283 12 371q51 344 447 344q125 0 225 -37q12 6 35 6h631q68 0 67 -70v-88q0 -68 -67 -67h-391q-23 0 -32 -9.5t-9 -31.5v-221q0 -23 9 -32t32 -9h274q68 0 68 -68v-90q0 -68 -68 -68h-274q-39 0 -41 -30v-318q0 -23 9 -32t32 -9h422q68 0 67 -67v-88 q0 -70 -67 -70h-662q-20 0 -35 6q-96 -37 -225 -37q-213 0 -317.5 89t-129.5 253q-12 88 -12 373zM319 422q0 -117 40 -172t151 -55t150.5 55t39.5 172v524q0 117 -39.5 172.5t-150.5 55.5t-151 -55.5t-40 -172.5v-524z" />
<glyph unicode="&#x153;" horiz-adv-x="1519" d="M51 684q0 283 12 371q51 344 447 344q125 0 225 -37q12 6 35 6h631q68 0 67 -70v-88q0 -68 -67 -67h-391q-23 0 -32 -9.5t-9 -31.5v-221q0 -23 9 -32t32 -9h274q68 0 68 -68v-90q0 -68 -68 -68h-274q-39 0 -41 -30v-318q0 -23 9 -32t32 -9h422q68 0 67 -67v-88 q0 -70 -67 -70h-662q-20 0 -35 6q-96 -37 -225 -37q-213 0 -317.5 89t-129.5 253q-12 88 -12 373zM319 422q0 -117 40 -172t151 -55t150.5 55t39.5 172v524q0 117 -39.5 172.5t-150.5 55.5t-151 -55.5t-40 -172.5v-524z" />
<glyph unicode="&#x178;" horiz-adv-x="960" d="M12 1298q-14 31 0.5 50.5t48.5 19.5h146q35 0 51 -9t29 -36l209 -500l209 500q12 27 28.5 36t50.5 9h144q35 0 49 -19.5t0 -50.5l-348 -772v-456q0 -70 -70 -70h-129q-70 0 -70 70v452zM211 1495v135q0 47 47 47h145q47 0 48 -47v-135q0 -47 -48 -47h-145q-47 0 -47 47z M539 1495v135q0 47 47 47h145q47 0 47 -47v-135q0 -47 -47 -47h-145q-47 0 -47 47z" />
<glyph unicode="&#x2c6;" horiz-adv-x="643" d="M41 965.5q-6 11.5 2 27.5l104 207q19 39 60 39h242q41 0 59 -39l104 -207q8 -16 2 -27.5t-18 -11.5h-86q-37 0 -64 31l-118 139l-119 -139q-27 -31 -64 -31h-86q-12 0 -18 11.5z" />
<glyph unicode="&#x2dc;" horiz-adv-x="661" d="M31 1010q0 92 44 150.5t134 58.5q59 0 134 -43t101 -43q41 0 41 49q0 23 9.5 29t25.5 6h70q41 0 41 -56q0 -92 -44 -150.5t-134 -58.5q-59 0 -134 43t-102 43q-41 0 -41 -49q0 -23 -9.5 -29t-25.5 -6h-69q-41 0 -41 56z" />
<glyph unicode="&#x2000;" horiz-adv-x="951" />
<glyph unicode="&#x2001;" horiz-adv-x="1903" />
<glyph unicode="&#x2002;" horiz-adv-x="951" />
<glyph unicode="&#x2003;" horiz-adv-x="1903" />
<glyph unicode="&#x2004;" horiz-adv-x="634" />
<glyph unicode="&#x2005;" horiz-adv-x="475" />
<glyph unicode="&#x2006;" horiz-adv-x="317" />
<glyph unicode="&#x2007;" horiz-adv-x="317" />
<glyph unicode="&#x2008;" horiz-adv-x="237" />
<glyph unicode="&#x2009;" horiz-adv-x="380" />
<glyph unicode="&#x200a;" horiz-adv-x="105" />
<glyph unicode="&#x2010;" horiz-adv-x="614" d="M41 635v123q0 57 57 57h418q57 0 57 -57v-123q0 -57 -57 -57h-418q-57 0 -57 57z" />
<glyph unicode="&#x2011;" horiz-adv-x="614" d="M41 635v123q0 57 57 57h418q57 0 57 -57v-123q0 -57 -57 -57h-418q-57 0 -57 57z" />
<glyph unicode="&#x2012;" horiz-adv-x="614" d="M41 635v123q0 57 57 57h418q57 0 57 -57v-123q0 -57 -57 -57h-418q-57 0 -57 57z" />
<glyph unicode="&#x2013;" horiz-adv-x="901" d="M51 649v94q0 57 58 58h684q57 -1 57 -58v-94q0 -57 -57 -57h-684q-57 0 -58 57z" />
<glyph unicode="&#x2014;" horiz-adv-x="1320" d="M51 649v94q0 57 58 58h1103q58 -1 58 -58v-94q0 -57 -58 -57h-1103q-57 0 -58 57z" />
<glyph unicode="&#x2018;" horiz-adv-x="387" d="M51 1030v100q0 51 27 89l92 131q29 39 74 39h35q31 0 30 -25q0 -12 -14 -33l-49 -69q-14 -23 -15 -31q0 -21 39 -27q35 -4 50.5 -15t15.5 -42v-117q0 -68 -64 -67h-157q-63 0 -64 67z" />
<glyph unicode="&#x2019;" horiz-adv-x="387" d="M51 1184v117q0 68 64 67h157q63 0 64 -67v-101q0 -51 -27 -88l-92 -131q-29 -39 -74 -39h-34q-31 0 -31 25q0 12 14 33l49 69q14 23 15 31q0 21 -39 27q-35 4 -50.5 15t-15.5 42z" />
<glyph unicode="&#x201a;" horiz-adv-x="387" d="M51 88v117q0 68 64 67h157q63 0 64 -67v-101q0 -51 -27 -88l-92 -131q-29 -39 -74 -39h-34q-31 0 -31 25q0 12 14 33l49 69q14 23 15 31q0 21 -39 27q-35 4 -50.5 15t-15.5 42z" />
<glyph unicode="&#x201c;" horiz-adv-x="749" d="M51 1030v100q0 51 27 89l92 131q29 39 74 39h35q31 0 30 -25q0 -12 -14 -33l-49 -69q-14 -23 -15 -31q0 -21 39 -27q35 -4 50.5 -15t15.5 -42v-117q0 -68 -64 -67h-157q-63 0 -64 67zM413 1030v100q0 51 27 89l92 131q29 39 74 39h35q31 0 30 -25q0 -12 -14 -33l-49 -69 q-14 -23 -15 -31q0 -21 39 -27q35 -4 50.5 -15t15.5 -42v-117q0 -68 -64 -67h-157q-63 0 -64 67z" />
<glyph unicode="&#x201d;" horiz-adv-x="749" d="M51 1184v116q0 68 64 68h157q63 0 64 -68v-100q0 -51 -27 -88l-92 -131q-29 -39 -74 -39h-34q-31 0 -31 25q0 12 14 32l49 70q14 23 15 31q0 20 -39 26q-35 4 -50.5 15.5t-15.5 42.5zM414 1184v116q0 68 63 68h158q63 0 63 -68v-100q0 -51 -26 -88l-92 -131 q-29 -39 -74 -39h-35q-31 0 -31 25q0 12 15 32l49 70q14 23 14 31q0 20 -39 26q-35 4 -50 15.5t-15 42.5z" />
<glyph unicode="&#x201e;" horiz-adv-x="749" d="M51 88v116q0 68 64 68h157q63 0 64 -68v-100q0 -51 -27 -88l-92 -131q-29 -39 -74 -39h-34q-31 0 -31 25q0 12 14 32l49 70q14 23 15 31q0 20 -39 26q-35 4 -50.5 15.5t-15.5 42.5zM414 88v116q0 68 63 68h158q63 0 63 -68v-100q0 -51 -26 -88l-92 -131q-29 -39 -74 -39 h-35q-31 0 -31 25q0 12 15 32l49 70q14 23 14 31q0 20 -39 26q-35 4 -50 15.5t-15 42.5z" />
<glyph unicode="&#x2022;" horiz-adv-x="532" d="M51 682q0 88 62.5 151.5t152.5 63.5t152.5 -63.5t62.5 -151.5t-62.5 -151.5t-152.5 -63.5t-152.5 63.5t-62.5 151.5z" />
<glyph unicode="&#x2026;" horiz-adv-x="1247" d="M51 68v137q0 68 64 67h157q63 0 64 -67v-137q-1 -68 -64 -68h-157q-63 0 -64 68zM481 68v137q0 68 64 67h157q63 0 64 -67v-137q-1 -68 -64 -68h-157q-63 0 -64 68zM911 68v137q0 68 64 67h157q63 0 64 -67v-137q-1 -68 -64 -68h-157q-63 0 -64 68z" />
<glyph unicode="&#x202f;" horiz-adv-x="380" />
<glyph unicode="&#x2039;" horiz-adv-x="454" d="M55 328q-31 53 0 106l172 297q18 31 49 31h154q20 0 29.5 -14.5t-2.5 -36.5l-176 -330l176 -330q12 -23 3 -37t-30 -14h-154q-31 0 -49 31z" />
<glyph unicode="&#x203a;" horiz-adv-x="454" d="M34 14.5q-9 14.5 3 36.5l176 330l-176 330q-12 23 -3 37t29 14h154q31 0 49 -31l172 -297q31 -53 0 -106l-172 -297q-18 -31 -49 -31h-154q-20 0 -29 14.5z" />
<glyph unicode="&#x205f;" horiz-adv-x="475" />
<glyph unicode="&#x20ac;" horiz-adv-x="880" d="M-8 655l12 80q10 68 78 68h39q0 106 6 215q10 182 77.5 266t235.5 84h363q68 0 67 -70v-79q0 -68 -67 -68h-342q-80 0 -80 -92v-256h260q70 0 59 -70l-12 -80q-10 -67 -78 -67h-229v-269q0 -92 82 -92h340q68 0 67 -67v-88q0 -70 -67 -70h-363q-168 0 -235.5 84 t-77.5 266q-6 117 -6 236h-70q-70 0 -59 69z" />
<glyph unicode="&#x2122;" horiz-adv-x="1081" d="M10 1290v39q0 39 41 39h324q41 0 41 -39v-39q0 -39 -41 -39h-84q-8 0 -8 -10v-459q0 -39 -41 -39h-58q-41 0 -41 39v459q0 10 -8 10h-84q-41 0 -41 39zM481 782v547q0 39 41 39h78q27 0 39 -29l106 -221l107 221q12 29 39 29h78q41 0 41 -39v-547q0 -39 -41 -39h-58 q-41 0 -41 39v305l-77 -161q-10 -25 -37 -25h-23q-27 0 -37 25l-78 161v-305q0 -39 -40 -39h-56q-41 0 -41 39z" />
<glyph unicode="&#x25fc;" horiz-adv-x="1372" d="M0 0v1372h1372v-1372h-1372z" />
</font>
</defs>
</svg>
